<svg xmlns="http://www.w3.org/2000/svg" width="40" viewBox="0 0 30 30" height="40" version="1.0"><defs><clipPath id="a"><path d="M.484 7.203h29.032V21.72H.484Zm0 0"/></clipPath><clipPath id="b"><path d="M.484 17H1v2H.484Zm0 0"/></clipPath></defs><g clip-path="url(#a)"><path fill="#fff" d="M29.469 14.04a3.843 3.843 0 0 0-.227.054c-.047.011-.094.015-.14.031.003-.008 0-.02 0-.027 0-.024.02-.02.03-.028.009-.008.013-.015.013-.023.007 0 .007-.008.007-.012a.394.394 0 0 0 .059-.027c.05-.035.086-.086.125-.133.043-.05.105-.105.125-.176.031-.113-.035-.23-.129-.293-.055-.039-.125-.062-.187-.086a.302.302 0 0 0-.157-.008c-.02-.019-.047-.027-.074-.039.02-.011.043-.015.063-.023a.533.533 0 0 1 .113-.027c.07-.012.144-.012.219-.02.003 0 0-.004 0-.004-.075.004-.157 0-.23.02-.04.008-.083.02-.122.031-.016.008-.031.012-.047.02-.008-.004-.015-.012-.027-.012a.012.012 0 0 0 0-.016c-.004-.004-.012-.004-.016-.004 0-.004-.004-.004-.004-.008-.008 0-.015-.003-.023-.003v-.024c0-.008-.016-.012-.024-.008-.003.004-.011.008-.015.012v-.016c0-.004-.008-.007-.012-.007-.008 0-.012.004-.016.007-.003.004-.003.012-.007.016-.02-.004-.04-.012-.063-.012l-.02-.023c-.007-.008-.015.004-.011.012l.004.007h-.004c-.016-.007-.024-.015-.04-.011-.003 0-.003.004-.003.004-.02-.008-.031-.04-.055-.036-.015-.011-.027-.023-.047-.027-.023-.012-.03-.035-.054-.043-.004 0-.012.004-.012.008-.012-.012-.023-.02-.035-.031-.008-.004-.016 0-.02.008.004-.012-.035-.028-.043-.024-.02.004-.02.016-.039.008-.035-.008-.066-.04-.101-.055-.04-.02-.082-.035-.121-.058-.16-.09-.301-.207-.45-.313-.054-.039-.113-.07-.168-.11a.085.085 0 0 0-.011-.019c-.008-.015-.024-.023-.032-.039-.015-.023-.02-.047-.043-.058-.007-.004-.015 0-.015.007v.004a.215.215 0 0 1-.067-.066c-.007-.008-.011-.02-.02-.024h-.003c-.012-.023-.031-.035-.04-.058-.023-.035-.054-.07-.081-.102-.02-.027-.04-.05-.05-.082-.013-.02-.013-.05-.028-.07a.217.217 0 0 1-.035-.066.072.072 0 0 0-.028-.047h-.008c-.007-.016-.011-.032-.02-.047-.003-.012-.01-.02-.015-.035a.522.522 0 0 0-.027-.07c-.012-.024-.035-.048-.047-.02-.02-.02-.031-.051-.062-.059h-.004c0-.02-.008-.039-.012-.058a.458.458 0 0 0-.035-.094c-.004-.004-.012-.004-.02-.004v-.031c0-.024-.023-.043-.02-.07 0-.012-.019-.012-.019 0 0 .011-.004.019-.004.03a.553.553 0 0 1-.015-.078c-.004-.02-.004-.043-.02-.058 0-.008-.012-.004-.012.004-.011-.024-.02-.047-.046-.059-.004-.004-.012 0-.012.008v.016c-.004-.008-.012-.012-.016-.016-.012-.016-.015-.04-.02-.05-.007-.016-.019-.032-.03-.048h-.005v-.031c0-.008-.011-.012-.015-.008l-.027-.043c-.004-.011-.012-.015-.02-.02-.016-.01-.016-.019-.023-.03-.012-.016-.02-.028-.036-.04a.286.286 0 0 1-.062-.054c-.035-.035-.063-.078-.106-.098-.007-.004-.02-.008-.023-.02-.008-.007-.008-.019-.016-.027l-.011-.027c-.004-.02-.004-.04-.004-.059 0-.004-.008-.008-.012-.008-.02.008-.016.028-.016.043-.007-.011-.011-.03-.027-.035-.004 0-.012 0-.012.008v.012c-.02-.016-.02-.05-.035-.063-.004-.004-.012-.004-.012 0-.003 0-.015.016-.02.004l-.003-.004c.004 0 .004-.007 0-.007-.012-.008-.02-.02-.035-.032-.012-.008-.031-.015-.043-.027-.024-.024-.043-.024-.074-.035-.016-.008-.035-.04-.047-.055a.082.082 0 0 0-.024-.016c-.02-.003-.035 0-.047-.003l-.011-.024v-.004c0-.008-.004-.015-.004-.023s0-.012-.008-.016c0-.004-.004-.004-.004 0-.004.004-.004.004-.008.012 0 0-.004 0-.004.004-.011-.02-.023-.043-.039-.02-.004.004-.004.008-.004.012-.007-.004-.011-.004-.02-.008a.102.102 0 0 1-.023-.031c-.007-.012-.019-.016-.019-.031-.004-.008-.012-.016-.016-.024s-.011 0-.011.004c.004.004.004.004.004.008h-.004c-.012 0-.016 0-.024.004h-.008c-.007-.004-.011-.012-.015-.016-.008-.011-.016-.02-.024-.02-.004 0-.008 0-.008.005-.003-.004-.003-.004-.007-.004l-.035-.035c-.008-.012-.012-.024-.028-.032-.004-.004-.015 0-.015.008v.012c-.016-.016-.024-.035-.047-.035-.02-.004-.032-.043-.055-.051-.012 0-.016-.004-.023.004-.004 0-.004.004-.004.008-.008.015-.028-.012-.032-.012-.007-.012-.015-.027-.035-.024 0 0-.004 0-.004.004a.1.1 0 0 1-.02-.05.14.14 0 0 0-.007-.043c-.004-.008-.012-.008-.016 0-.004.015-.007.03-.007.046-.004-.003-.008-.003-.012-.003-.012 0-.016-.008-.024-.016-.02-.012-.02-.004-.03.008 0-.004-.005-.004-.009-.008 0-.016.004-.035.004-.05 0-.005-.004-.005-.004 0a.168.168 0 0 0-.007.046l-.008-.008c-.02-.035-.063-.058-.09-.09-.004-.004-.016 0-.016.008v.024c-.031-.024-.047-.067-.078-.086-.008 0-.015 0-.015.008-.004.003-.004.011-.004.019 0 .02-.016-.004-.024-.016-.012-.015-.027-.039-.05-.046-.005-.004-.008 0-.008.007 0 .008 0 .016.003.028-.023-.02-.043-.055-.058-.078-.012-.016-.02-.032-.031-.051a.085.085 0 0 1-.012-.02c0-.011-.004-.02-.008-.027 0-.008-.008-.008-.008 0-.004.012-.004.02.004.027 0 .004 0 .004.004.008-.004.008-.004.012-.004.02.008.023.02.046.028.074.003.004.011.047 0 .035-.008-.004-.012-.016-.02-.023-.008-.008-.016-.016-.031-.016-.004 0-.008.004-.004.008 0 0 .015.031 0 .027a.07.07 0 0 1-.027-.02.14.14 0 0 0-.04-.027s-.003 0-.003.008v.02c-.004-.004-.004-.008-.008-.012-.02-.024-.043-.047-.063-.07-.039-.051-.07-.11-.105-.165-.004-.003-.012-.003-.008.004.012.028.016.059.035.086.012.012.016.035.02.055a.117.117 0 0 0 .023.043v.004c-.008-.004-.016-.012-.027-.016-.012-.008-.024-.015-.032-.023-.003-.004-.011-.008-.015-.016-.004-.004-.012.004-.008.008.023.023.035.055.047.082 0-.004-.004-.008-.008-.012a.044.044 0 0 0-.031-.011c-.004 0-.008 0-.008.003v.004c-.004-.007-.008-.011-.012-.02-.004-.003-.004-.003-.008-.003-.011.012-.015.02-.015.035-.008-.02-.016-.035-.024-.05-.011-.028-.023-.075-.058-.079-.004-.004-.008 0-.008.004 0 .016.004.031.008.047a1.672 1.672 0 0 0-.074-.102v-.004c-.012-.019-.02-.042-.028-.062-.008-.027-.004-.055-.004-.086 0-.004-.004-.004-.007 0a.217.217 0 0 0 .011.113.65.65 0 0 1-.093-.187c0-.004-.008-.004-.008 0a.303.303 0 0 0 .02.144c.007.012.007.028.011.04.008.015.016.027.023.042.012.028.036.055.04.086-.012-.007-.02-.02-.032-.03-.015-.017-.023-.036-.035-.052a.468.468 0 0 1-.043-.047.138.138 0 0 0-.039-.046c-.004-.004-.008.003-.004.007.008.016.02.032.035.043.012.028.024.055.032.078 0 .004.007.04-.004.036-.008 0-.016-.012-.024-.02-.012-.012-.02-.027-.027-.039 0-.004-.004-.008-.004-.008-.004-.008-.004-.02-.008-.031a1.204 1.204 0 0 1-.015-.117c0-.004-.004-.004-.004 0 0 .035.003.074.007.11-.003-.013-.007-.02-.011-.032a.474.474 0 0 0-.04-.055c-.003-.011-.011-.023-.023-.027-.004-.004-.008 0-.008.004 0 .011.004.02.012.031.012.02.016.035.02.055 0 .008.011.031.007.023.004.012.004.02.008.031.004.02.008.051.008.075-.004 0-.004-.004-.008-.008l-.004-.004c-.011-.031-.027-.059-.039-.09 0-.004-.004 0-.004 0a.226.226 0 0 0 .024.066c-.02-.03-.028-.066-.047-.09-.004-.003-.008 0-.008.005.004.023.004.046.008.07 0 .012 0 .027.004.039a1.293 1.293 0 0 0-.145-.215 1.74 1.74 0 0 0-.328-.328.783.783 0 0 0-.144-.086v-.027c0-.004-.008-.004-.008 0v.027c-.016-.004-.027-.012-.043-.016 0-.015.004-.027.004-.039 0-.004-.004-.004-.004 0-.004.012-.004.024-.004.035a.074.074 0 0 1-.031-.007.114.114 0 0 1-.008-.036v-.019c0-.004-.004-.004-.004 0-.004.008-.004.031-.004.05a.505.505 0 0 0-.172-.007.548.548 0 0 0-.21.086c-.055.035-.098.086-.141.133v-.133c0-.004-.004-.004-.004 0-.008.047-.004.094-.004.137-.008.007-.012.015-.02.023l-.011.012a.72.72 0 0 0-.024-.156s-.004 0-.004.003c0 .032.012.067.016.102.004.02.004.039.004.059l-.016.015c-.012-.023-.031-.043-.031-.07 0-.004-.008-.008-.008 0a.399.399 0 0 0 .012.117.192.192 0 0 0-.02.078c0 .016-.004.031-.004.043-.015-.023-.054-.039-.074-.055-.004-.003-.008 0-.004.004.004.012.008.02.016.032.012.03-.02-.004-.024-.008a.122.122 0 0 0-.043-.035c-.003-.004-.007-.004-.011-.008-.008-.004-.012.008-.004.008 0 .004.004.004.004.004.02.011.031.039.043.058-.004 0-.008-.004-.012-.004-.012-.008-.02-.015-.031-.015-.004 0-.008 0-.008.004-.008 0-.012 0-.016-.004-.004-.008-.011-.008-.015-.016-.004 0-.008 0-.008.004v.027c-.008-.008-.012-.015-.016-.023-.008-.012-.02-.028-.035-.024-.004 0-.004.004-.004.004-.004.02.012.043.008.063-.012-.016-.02-.028-.031-.035-.016-.012-.024-.032-.04-.043-.003-.004-.011 0-.011.007.004.008.004.016.008.024s.004.016.008.027c-.008-.011-.02-.015-.028-.023-.004-.004-.008-.004-.008 0-.003 0-.02-.012-.02-.016-.007-.004-.01-.004-.015-.004a.104.104 0 0 0-.039-.023c-.008-.004-.015.004-.008.008.004.007.012.011.016.02.008.003.008.01 0 .019l-.02-.016c-.015-.008-.03-.02-.046-.027.004-.004.004-.004 0-.008-.032-.016-.051-.035-.078-.055-.004 0-.012 0-.008.008 0 .004.004.012 0 .008a.069.069 0 0 0-.02-.016.063.063 0 0 0-.027-.015c-.004 0-.008.004-.008.004-.027-.012-.05-.036-.074-.051-.008 0-.008.004-.008.008-.008.003-.012 0-.016-.004l-.023-.024a.173.173 0 0 0-.043-.031c-.004-.004-.012.004-.008.004l.024.058c-.004-.003-.008-.007-.012-.007-.008-.008-.024-.016-.027-.02-.016-.008-.032-.012-.047-.023-.004-.004-.008 0-.008.004 0 0 0 .004.004.007-.004-.004-.008 0-.008.004v.004c-.031-.02-.059-.05-.102-.058-.004-.004-.007.004-.007.007v.016l-.06-.039c-.015-.012-.034-.027-.054-.023a.008.008 0 0 0-.008.007c0 .024-.054-.023-.066-.03-.016-.009-.031-.02-.047-.017-.004 0-.008.004-.004.008 0 .008.004.016.008.024-.027-.012-.059-.047-.09-.043-.02.004-.027-.004-.043-.004-.027-.004-.043-.016-.066-.024-.031-.015-.027.02-.055.016-.027 0-.05-.012-.078-.02-.012-.003-.027-.011-.043-.003-.004 0-.004 0-.004.004l.012.023c-.004 0-.008-.004-.012-.004a.13.13 0 0 0-.066.004c-.008 0-.016.008-.028.004a.063.063 0 0 1-.035-.012c-.011-.015-.027-.027-.043-.027-.004 0-.008.008-.004.015a.082.082 0 0 1 .016.024c-.012.004-.031 0-.047 0-.008-.004-.02-.004-.027-.008-.02-.004-.043-.004-.063-.008-.02-.008-.035-.008-.054-.008-.024 0-.04-.007-.063-.011-.004-.004-.012.004-.012.008.004.003.004.007.008.015.008 0 .008 0 0 0 0 0-.004-.004-.008-.004-.011 0-.023.004-.039-.004-.011-.004-.023-.004-.03-.004a.554.554 0 0 0-.087-.02c-.031-.007-.062-.019-.094-.023-.004 0-.007.008-.004.008a.185.185 0 0 0 .04.04l.015.011c-.02-.004-.039-.012-.058-.008-.004 0-.008.004-.004.008 0 .008.004.012.011.012h-.011c-.004 0-.02.004-.032.004v-.004h.004c-.004 0-.008-.004-.008-.004s-.003 0-.003-.004a.306.306 0 0 0-.055-.008c-.008 0-.012.012-.004.016.008 0 .012.004.016.011-.028 0-.055-.011-.082-.015-.008 0-.012.008-.008.012 0 .004.004.004.004.007-.032-.004-.059-.011-.094-.007-.004 0-.004.004-.004.007v.004c-.023 0-.043 0-.07-.004-.016 0-.032 0-.047-.004-.016-.007-.027-.011-.043-.007-.004 0-.008.004-.004.008.004.007.012.015.02.023-.008-.004-.016-.008-.02-.012-.016-.004-.031-.004-.047-.011-.016-.004-.043-.012-.062-.012-.004 0-.004.008-.004.011.004.004.004.008.008.012a.07.07 0 0 1-.032-.02.104.104 0 0 1-.023-.019c-.004-.004-.031-.035-.031-.047-.004-.008-.016-.004-.016.004 0 .012.004.024.008.035l-.082-.058c-.032-.016-.059-.051-.086-.074-.024-.016-.043-.04-.074-.043-.004 0-.008.003-.008.003-.016-.003-.024-.015-.035-.023-.016-.008-.024-.016-.036-.027-.015-.016-.039-.035-.062-.035-.004 0-.012.007-.008.011 0 .012.008.02.016.028-.012-.008-.02-.02-.032-.024a.19.19 0 0 0-.042-.015c-.016-.004-.032-.016-.043-.024-.016-.008-.032-.02-.047-.016-.012.004-.012.02-.008.028-.016 0-.05-.028-.059-.035-.015-.012-.027-.043-.05-.043-.004 0-.008.008-.004.011 0 .016.003.028.007.043-.015-.011-.027-.02-.046-.02-.004 0-.004.005-.008.009-.04-.016-.067-.078-.117-.055-.012.004-.004.008-.016 0-.016-.012-.035-.023-.05-.035-.024-.024-.048-.047-.067-.074-.008-.012-.024 0-.02.007 0 .012.004.028.008.036-.004 0-.008-.004-.012-.004a.21.21 0 0 1-.05-.028c-.036-.023-.07-.043-.102-.066l-.05-.035-.056-.04c-.015-.015-.03-.038-.054-.034a.008.008 0 0 0-.008.007c.004.008.02.043.012.043-.012-.004-.024-.011-.032-.015-.035-.016-.058-.043-.09-.055-.003 0-.011 0-.011.008s.004.02.008.027c-.032-.031-.067-.066-.11-.07-.011 0-.023.015-.015.027s.011.02.02.031c-.009.004-.016.012-.024.02-.035-.027-.067-.07-.113-.074-.004 0-.008 0-.008.004-.024-.02-.051-.036-.075-.051-.054-.035-.113-.063-.16-.098a1.268 1.268 0 0 0-.273-.156c-.012-.004-.02.004-.012.016 0 .007.008.011.008.023.004.004.008.008.008.012.004.008-.012.008-.016.008-.027.011-.055-.02-.074-.036a.216.216 0 0 0-.117-.062c-.012-.004-.012.008-.012.012.008.066-.227-.024-.262-.032-.011-.004-.02-.011-.03-.015-.02-.016-.048-.024-.067-.031-.004-.004-.008-.004-.012-.004a.213.213 0 0 1-.047-.094s-.004-.004-.004 0c0 .031.016.062.04.09a.3.3 0 0 0-.11-.028c-.02 0-.043 0-.055.016-.012.016-.012.035-.012.055a.21.21 0 0 0-.05-.028.38.38 0 0 1-.043-.02c-.016-.003-.024-.019-.035-.023-.036-.02-.055-.039-.086-.05a.182.182 0 0 0-.02-.04c-.012-.023-.031-.046-.035-.078 0-.004-.008-.004-.008 0a.192.192 0 0 0 .024.067l.023.047-.008-.004c-.031-.02-.058-.04-.09-.059-.035-.015-.066-.058-.11-.05-.003 0-.007.007-.007.011 0 .008.004.016.004.024-.027-.012-.043-.024-.066-.04-.032-.027-.07-.043-.106-.07a.297.297 0 0 0-.074-.047c-.008 0-.016.004-.016.012 0 .04.035.063.055.094a.157.157 0 0 1-.063-.032.054.054 0 0 1-.011-.015c-.02-.024-.031-.055-.055-.078h-.004a.3.3 0 0 0 .04.07c-.009-.004-.012-.008-.02-.012-.028-.02-.055-.043-.086-.03-.028.007-.04-.013-.055-.028a.415.415 0 0 0-.043-.035c-.027-.032-.05-.07-.082-.102-.004-.004-.012 0-.016.008 0 .023 0 .047.004.074 0 .008.008.024.012.035-.016-.008-.035-.027-.05-.035-.005 0-.008-.004-.012-.004a.409.409 0 0 1-.051-.09c-.004-.004-.004 0-.004.004a.32.32 0 0 0 .035.074c-.008-.007-.02-.011-.027-.023-.016-.016-.035-.04-.063-.031-.02.004-.015.031-.008.054-.004 0-.004-.003-.004-.003h-.007a.047.047 0 0 0-.02-.02c-.004 0-.004.004-.004.004l.012.016c-.008 0-.02 0-.027.003a.008.008 0 0 0-.008.008c0 .008 0 .016-.004.02-.02-.012-.04-.02-.059-.031-.023-.016-.043-.036-.062-.055-.024-.024-.051-.047-.067-.078 0-.004-.004 0-.004.004.012.035.04.058.067.09.004.003.008.003.012.007-.016-.004-.028-.011-.043-.02-.032-.011-.063-.019-.094-.034-.016-.012-.035-.008-.055 0-.02.007-.015.03-.015.046 0 .032-.028.004-.04 0-.019-.011-.035-.023-.05-.035-.051-.035-.102-.066-.164-.062a.008.008 0 0 0-.008.008.126.126 0 0 0 .055.078.284.284 0 0 0-.125-.024c-.008 0-.012.004-.012.012 0 .059-.067.008-.094 0-.043-.012-.086-.035-.129-.05-.012-.005-.02.007-.012.015.004.008.008.016.016.02.004.007.016.038-.016.027l-.027-.012-.039-.012c-.023-.02-.039-.043-.059-.07 0 0-.003 0-.003.004.011.02.023.035.035.05-.016-.003-.04 0-.047.012-.008 0-.012-.003-.016-.003v-.004c-.031-.02-.066-.04-.094-.07-.027-.028-.039-.063-.054-.098 0-.004-.004-.004-.004 0 .008.078.066.125.129.164-.016-.008-.031-.012-.047-.02-.031-.008-.07-.023-.102-.012-.007 0-.007.008-.004.012.004.004.008.008.008.012-.047-.008-.09-.04-.136-.043-.02 0-.036 0-.051.012-.012.011-.008.035-.004.05-.043-.011-.086-.027-.13-.02a.008.008 0 0 0-.007.009c0 .004 0 .02-.004.02a.078.078 0 0 1-.05-.009c-.024-.011-.044-.023-.07-.03-.005-.005-.013 0-.013.007a.139.139 0 0 0 .016.035c-.012-.008-.02-.016-.031-.02-.004-.003-.008.005-.004.005.012.007.023.015.035.019h.004c.004.004.004.008.008.012-.043-.008-.082-.032-.125-.047-.004 0-.008 0-.012-.004a.427.427 0 0 1-.074-.137.47.47 0 0 0 .066.133.291.291 0 0 1-.12-.059c-.005-.007-.017 0-.013.008a.14.14 0 0 0 .008.043c.008.028-.031.004-.039-.004-.027-.02-.058-.043-.094-.047a.008.008 0 0 0-.007.008c.004.024.011.04.023.059l.012.012c-.078-.051-.176-.067-.262-.106-.008 0-.016.004-.016.012a.082.082 0 0 0 .016.023c-.004 0-.008-.004-.008-.004-.008-.004-.015.004-.008.008.008.008.016.008.028.012-.04-.004-.086.004-.125-.004h-.008a1.044 1.044 0 0 1-.14-.121c-.005-.004-.012.004-.008.008.039.039.082.074.124.11a.624.624 0 0 0-.082-.02c-.011-.004-.02-.004-.03-.008-.009 0-.016 0-.024-.004-.031-.008-.047-.035-.07-.055-.024-.012-.043-.031-.06-.047-.003-.011-.007-.015-.01-.023-.009-.012-.02-.004-.016.008.003.007.007.015.015.023.012.012.02.027.031.04 0 .003.004.003.008.007-.004 0-.004 0-.008-.004-.011-.004-.02.012-.007.016.015.004.027.011.043.015-.004 0-.012-.004-.02-.008 0 0-.004 0-.008.004a.03.03 0 0 0-.02-.007c-.007 0-.007.007-.007.011h.004v.004c-.016-.008-.028-.011-.04-.02-.003-.003-.007.005-.003.005.008.007.02.015.027.023.012.004.024.012.031.016v.004c0 .003.004.003.008.003.008.016.016.028.031.036a.072.072 0 0 1-.027-.008c-.035-.024-.074-.047-.11-.07a.345.345 0 0 1-.097-.102 1.223 1.223 0 0 1-.066-.082.107.107 0 0 0-.035-.047c-.004-.004-.012 0-.008.008l.035.047c.004.011.012.02.012.031l.046.098a.981.981 0 0 0 .098.125c-.035.004-.074-.036-.098-.047-.023-.016-.043-.035-.07-.032v.004c.043.055.102.086.16.13-.047-.008-.09-.028-.136-.024-.004 0-.008 0-.008.004-.004.015.02.027.031.035.02.012.047.023.066.039-.015 0-.035-.012-.054-.016-.016-.004-.031 0-.051 0-.004 0-.004 0-.004.004v.008c.008.008.008.008.008.012-.027-.028-.059-.051-.082-.078-.008-.008-.02.004-.012.008.024.027.05.05.078.074-.004 0-.011-.004-.011-.004-.028 0-.032.004-.051-.008a.234.234 0 0 0-.063-.031c-.011-.012-.02-.028-.031-.043a2.462 2.462 0 0 1-.086-.13c-.004-.003-.008.005-.008.005.035.05.063.101.098.148.004.004.004.008.008.016-.02-.004-.04-.008-.051-.02a.196.196 0 0 1-.027-.03c-.012-.013-.02-.028-.036-.032-.003 0-.011 0-.007.008.004.011.007.02.015.03l.012.013c.016.02-.012.003-.016.003-.023-.015-.043-.035-.066-.046-.004 0-.004.004-.004.004.012.011.02.023.027.035a.293.293 0 0 1-.07-.032c-.027-.015-.05-.027-.074-.043-.027-.02-.055-.058-.094-.054-.004 0-.008.008-.004.008.016.027.04.05.063.074-.004 0-.004.004-.004.008.008.015.031.02.035.039 0-.004-.004-.004-.008-.008.004.008.004.012.008.016.004.011.012.019.02.027.003.004.007.008.007.012l.004.003c0 .004 0 .004.004.004-.023 0-.043-.011-.062-.02-.016-.003-.04 0-.051-.015-.012-.011-.02-.02-.035-.008-.004 0-.004.004-.004.008.008.016.027.02.039.035-.031-.011-.063-.023-.086-.039a.132.132 0 0 0-.047-.023c-.008 0-.008.008 0 .008.012.004.02.02.027.027.02.027-.011.004-.015 0a.215.215 0 0 0-.055-.035c-.004 0-.008 0-.008.004 0 .008 0 .011.008.023.02.02-.02 0-.023 0a.063.063 0 0 0-.028-.015c-.023-.012-.039-.036-.062-.051a.202.202 0 0 1-.07-.07c-.004-.004-.008-.008-.008-.012-.004-.004-.012 0-.008.004l.012.023c.015.027.027.059.043.09a.21.21 0 0 0 .027.05c.015.02-.012 0-.012 0-.008-.003-.012-.011-.02-.015l-.003.004c0 .012.008.027.015.035-.015-.015-.035-.02-.058-.027-.016-.008-.043-.024-.063-.02l-.004.004c.004.004.024.035.016.035-.016-.007-.031-.02-.043-.027a.751.751 0 0 0-.066-.05.253.253 0 0 1-.036-.032c-.011-.012-.027-.016-.039-.027-.02-.02-.035-.043-.058-.055-.004 0-.008 0-.008.004.027.055.05.105.078.16.024.04-.02.004-.027-.004-.016-.012-.032-.023-.043-.035l-.024-.023v-.004a.088.088 0 0 0-.03-.043c-.005-.004-.009 0-.009.004a.101.101 0 0 0 .028.043.102.102 0 0 1 .011.043l.012.023c-.027-.02-.055-.035-.082-.055-.016-.011-.031-.023-.05-.039l-.016-.012h-.004a.07.07 0 0 0-.028-.03l-.004.003c.008.016.02.027.032.035.035.051.062.114.101.16-.015-.003-.035-.007-.05-.02-.012-.003-.024-.01-.04-.007-.004 0-.004.004-.004.008.004.008.012.02.012.031-.039-.015-.09-.031-.129-.008-.004.004-.004.004-.004.008v.004a.144.144 0 0 1-.043-.02c-.015-.007-.02-.023-.027-.035-.008-.015-.02-.027-.023-.046h-.004c0 .03.02.066.043.082.015.02.039.023.058.03.004 0 .004.005.008.009-.008.003-.02.007-.027.003-.024-.003-.047-.007-.067-.015-.023-.008-.05-.008-.074-.02-.008-.004-.015-.004-.023-.004-.004-.007-.012-.011-.016-.02a.307.307 0 0 1-.066-.16c0-.003-.008-.003-.008 0-.004.067.035.122.074.173 0 0 .004.004.008.004l-.012.003a.008.008 0 0 0-.008.008c.008.016.02.028.028.043l-.035-.011c-.032-.012-.055-.036-.082-.051-.02-.016-.047-.028-.07-.04a.679.679 0 0 1-.052-.058c-.035-.039-.05-.082-.07-.129 0-.004-.004-.004-.004 0 .008.059.04.117.082.16a3.897 3.897 0 0 1-.176-.18c-.02-.023-.03-.046-.05-.074-.012-.015-.032-.039-.035-.058 0-.008-.004-.016-.004-.024 0-.004-.008-.004-.008 0v.028a.457.457 0 0 0 .027.097.047.047 0 0 0-.02-.02c-.003 0-.007.005-.003.005.011.02.027.035.043.05a.344.344 0 0 1 .023.04c.004.003.008.007.008.011.004.004.004.008.008.008.031.055.074.106.113.156 0 .008.004.012.004.016 0 0-.004 0-.008-.004l-.02-.012c-.027-.02-.046-.05-.066-.078 0-.004-.008 0-.004.004.008.02.02.04.035.055a.423.423 0 0 1-.085-.082.094.094 0 0 0-.032-.024c-.004-.011-.011-.023-.02-.035-.003-.008-.003-.015-.007-.02-.004-.011-.012-.019-.016-.03-.004 0-.004 0-.004.003a.27.27 0 0 1 .012.032h-.004c0-.004-.004 0-.008 0v.011c-.011-.02-.027-.035-.043-.05-.004 0-.007 0-.004.003.016.028.04.055.06.082.003 0 .003.004.003.004.004.008.012.016.016.024h-.004s-.004-.004-.004-.008c-.008-.004-.012-.012-.016-.02-.004 0-.008 0-.008.004.004.012.012.02.02.028a.025.025 0 0 0-.024 0c-.003 0-.003.004 0 .008a.03.03 0 0 0 .016.007c.004.004.008.008.012.008.004.008.015.008.012.016-.004.004 0 .004.003.004V7.55c.008.004.012.011.02.02.008.015.023.023.031.034.008.012.008.024.012.032-.012-.028-.043-.043-.063-.063-.003-.004-.011.004-.007.008.011.012.02.023.035.031.008.004.011.016.023.024.008.008.004.02.012.027.016.024.043.047.062.066-.011-.003-.02-.011-.03-.02-.016-.01-.036-.026-.056-.03a.008.008 0 0 0-.007.008c.027.03.062.05.093.078-.027-.012-.05-.028-.078-.043-.023-.02-.05-.035-.078-.055-.004-.004-.012-.012-.015-.02a.085.085 0 0 0-.02-.015l-.012-.024c-.004-.004-.011-.004-.011 0a.062.062 0 0 0 .02.032c.007.007.015.02.026.027a.167.167 0 0 0 .047.043c.024.02.047.043.07.062.02.02.06.028.071.055-.016 0-.031-.004-.05.004-.009 0-.009.008-.005.012l-.05-.012c-.012-.008-.024-.02-.04-.023a.192.192 0 0 1-.058-.04c-.02-.023-.047-.03-.067-.05 0-.004-.003 0 0 0 .024.039.067.062.102.086-.04-.012-.078-.032-.113-.047-.086-.04-.153-.098-.219-.156-.008 0-.012.003-.008.007.016.02.027.036.047.055.016.016.047.031.055.055-.028-.012-.051-.035-.075-.051-.027-.02-.054-.043-.082-.059-.003-.007-.011 0-.011.008.02.059.054.102.097.145a.505.505 0 0 1 .063.07c.008.012.023.016.035.023-.02 0-.035 0-.047.012-.004 0-.008.008-.004.008a.08.08 0 0 0 .024.035.518.518 0 0 1-.203-.082c0-.004-.004 0-.004 0a.482.482 0 0 0 .105.067 2.411 2.411 0 0 1-.18-.051c-.003-.004-.007.004-.003.008a.407.407 0 0 1 .07.039l-.004.004v.007c-.004.004-.008.004-.012.004 0 .004 0 .004-.004.008-.011-.008-.027-.02-.039-.012-.008 0-.011.004-.011.012-.004.016-.02.008-.028.008a.008.008 0 0 0-.008.008v.008H9.81c-.012-.004-.047 0-.055-.008-.012-.008-.027-.012-.04-.004-.003 0-.003.004 0 .008 0 .003.016.02.009.015-.008 0-.02-.004-.028-.004-.011-.004-.023-.004-.035-.008-.012-.003-.023-.015-.039-.015-.004-.004-.008.004-.004.008.004.008.008.02.02.027.004 0 .004.004.008.004.02.008-.008.008-.012.008-.008 0-.02-.004-.028-.004h-.011c-.031-.008-.067-.043-.098-.059-.004-.004-.008.004-.004.004.035.02.067.043.102.059H9.55c-.016-.008-.031-.016-.047-.016-.004 0-.004.004 0 .004 0 0 .012.004.027.012-.02 0-.035.004-.05.004h-.004l-.09-.047c-.004-.004-.012.004-.004.008a.5.5 0 0 0 .078.043h-.012c-.008 0-.015.007-.02.02-.007.023-.03.01-.05.023-.004.003-.004.011-.004.011.016.02-.043.008-.04.008-.015 0-.023 0-.034.012h-.016c-.012 0-.023-.008-.035-.012-.012-.004-.031-.004-.035-.016 0-.003-.008 0-.008.004.004.012.016.016.027.024.008 0 .02.008.032.011-.028.004-.059-.007-.082-.011-.012 0-.016.008-.016.015.004.004.023.043.016.043-.008 0-.024-.004-.028.004a.02.02 0 0 0-.004.032c-.027.003-.058.015-.082.02-.015.003-.03 0-.047 0-.02-.005-.039-.013-.058-.017-.004 0-.008.004-.004.008l.043.012H9c-.02.008-.004.027.012.039h-.024c-.004.004-.011.004-.015.004-.051-.016-.094-.04-.141-.063-.004 0-.004.004 0 .004.035.024.078.051.121.063h-.008s-.004.004-.008.004c-.003.004-.007.004-.011.004h-.012c-.016 0-.027 0-.043-.008h-.016c-.003 0-.003.004 0 .004a.269.269 0 0 1 .032.011h-.008a.008.008 0 0 0-.008.008c.004-.008-.07-.004-.074-.004-.008 0-.008.008-.008.012.008.008.012.016.02.024-.024 0-.055-.008-.075 0-.004 0-.007.003-.004.007 0 .004.016.02.012.02-.012 0-.027.004-.043.004-.02 0-.047-.012-.066.004v.008c0 .003.004.003.008.007-.008 0-.02-.004-.032-.004h-.086a.065.065 0 0 0-.043.016c-.003 0 0 .004 0 .004.028-.016.06-.012.09-.012.02 0 .04 0 .059.004.012 0 .02.004.031.004-.023 0-.047.004-.066.004-.02 0-.04.012-.059.016-.015 0-.031 0-.05.003 0 0-.005.004-.008.004v.008c0 .004.003.008.007.008.012.004.02.012.032.012a.132.132 0 0 1 .058.023c.008.004.012.008.02.008s.02 0 .027.004c-.023.008-.047.004-.07 0-.02 0-.04.004-.059.004-.027 0-.058-.012-.078 0-.008.004-.008.008 0 .011.016.016-.008.02-.02.02-.011 0-.039-.004-.05 0-.004.004-.008.008-.004.012s.008.011.015.011c.004.004.012.008.016.016.004.004.004.004.004.008v.004h-.004a.198.198 0 0 0-.066.012c-.016 0-.047-.008-.059-.02.008.012.027.02.043.023-.004.004-.008.004-.012.004-.011.004-.03.004-.03.02-.005.012.003.02.01.031-.015.012-.046.016-.062.02l-.047.011c-.035.012-.003.036.012.043 0 0 0 .004.004.004-.008 0-.016.004-.023.004-.02.008-.047.004-.067.02-.031.015 0 .039.016.058v.004h.004c-.031.004-.086.012-.078.035.004.012.027.028.004.032-.016.004-.036 0-.051 0-.008 0-.008.011 0 .011.023 0 .039.008.058.02-.011.004-.023.008-.03.008-.017.004-.028.004-.044.004h-.016c-.011 0-.019-.004-.027-.004-.05-.012-.101-.02-.148-.032-.008 0-.008.012-.004.012.05.008.101.02.148.027-.008.004-.011.004-.015.008-.036.008-.063.016-.098.02-.016 0-.04-.008-.05 0-.005 0-.005.004-.005.004 0 .008.004.011.012.015 0 0 0 .004.004.004.008.016-.024.004-.027 0a.116.116 0 0 0-.04-.008.008.008 0 0 0-.007.008c0 .004 0 .012.004.016.003.008.003.012.007.015.008.02-.02.02-.03.02a.205.205 0 0 0-.098-.004c-.004 0-.004.008-.004.012.007.012.02.02.027.027.008.008.02.012.023.016h-.007c-.094-.004-.188 0-.282 0a.62.62 0 0 0-.148.023c-.043.012-.082.02-.117.04-.004 0 0 .007 0 .007a.52.52 0 0 1 .133-.039c.05-.008.105-.02.16-.02.074 0 .148.004.222 0-.039.016-.09.016-.129.016-.078.004-.156.004-.23.024-.008 0-.008.007 0 .011a.107.107 0 0 0 .05.008c.028-.004.055.004.083.008a.641.641 0 0 1 .043.012c.008 0 .02.011.004.011a.288.288 0 0 0-.055.016c-.004 0-.008.008-.004.008a.056.056 0 0 0 .04.015c-.005.004-.009.004-.013.004-.015.008-.02.016-.039.016-.011 0-.023 0-.035.004a.304.304 0 0 0-.062.008c-.004 0-.008 0-.012.004h-.008c-.008 0-.004.004-.004.007v.004c.004.008.016.008.024.012.02.004.066.027.07.05-.04 0-.07-.027-.11-.027-.019-.003-.054-.015-.074-.003-.011.007-.004.023.008.023h.028c.011 0 .078.023.054.035-.004 0-.004.008 0 .012.008.004.012.008.024.008h.004c-.028.008-.051.011-.079.02a.23.23 0 0 0-.054.007c0 .004-.043.008-.055.02a.328.328 0 0 0-.047.015c-.02.008-.043.012-.054.031 0 0 0 .004 0 0 .019-.02.058-.023.082-.03.003 0 .011-.005.02-.009v.004c.015.02.046.02.07.024.027.008 0 .004-.008.008-.008 0-.02.003-.032.003-.03.008-.062.008-.093.016-.004 0-.008.004-.004.008 0 .008.007.012.015.012.02.004.04.004.059.015-.027 0-.055.02-.078.02-.012 0-.024 0-.035.008-.016.011-.036.003-.051.02-.024 0-.047.007-.067.01-.007 0-.007.013 0 .013l.075-.012c.007 0 .02.004.02.012 0 .007-.028.015-.032.015-.008.004-.008.008-.008.016 0 .004 0 .008.004.011h.004a.601.601 0 0 0-.137.06c-.008.003 0 .01.004.007a.543.543 0 0 1 .11-.047c-.004.004-.008.004-.012.008v.008c-.012 0-.02.004-.02.015.004.012.028.02.035.02.02.004.024.015 0 .02-.02.007-.039.011-.058.019-.024.008-.07-.004-.086.02-.008.007 0 .015.008.023l.047.023c-.028.004-.051.008-.079.008-.007 0-.007.012 0 .012.032-.004.059-.004.086-.004h-.004c-.027.012-.054.035-.027.05-.012.008-.031.008-.043.008-.023.004-.047.012-.07.016-.008 0-.008.016 0 .016.023 0 .035.02.047.031-.02.008-.035.016-.051.016-.024.004-.047.004-.066.007-.012 0-.02.004-.016.016 0 0 0 .004.004.004a.19.19 0 0 1-.028.012c-.003 0-.007.011 0 .015.016.004.028.016.043.024l.004.004c-.02.004-.043.004-.062.007-.024.004-.04.028-.063.032-.008 0-.035.008-.03.023.003.02.026.012.042.012h.051c.015.027.012.047-.012.05-.012.005-.031.008-.047.012-.023.008-.05.024-.062.047-.008.012-.012.035.008.04.015 0 .03-.005.046-.005.024 0 .047.004.07.012-.015.008-.038.016-.054.024-.035.015-.066.023-.098.035-.027.008-.05.023-.074.035-.015.004-.023.008-.027.023 0 .004.004.008.008.008.023.004.05-.004.074-.004h.043a.206.206 0 0 0-.059.02c-.011.004-.035.015-.027.031.008.008.02.008.027.012.012 0-.011.004-.011.004-.016.004-.028.015-.043.02-.004 0-.008.007-.004.01.011.013.023.028.039.036-.02.012-.043.02-.067.031-.039.016-.082.04-.125.043-.004 0-.008.004-.004.008.004.016.02.02.04.024-.02.011-.06.015-.075.019a.19.19 0 0 0-.043.016c-.004 0-.004.007 0 .007.016.012.028.02.051.02.012 0 .031.004.043.004.008 0 .023.004.035.004-.008 0-.012.004-.02.008-.011.007-.027.011-.042.02-.02.003-.035.015-.055.023a.221.221 0 0 0-.05.03c-.013.005-.024.005-.036.013v.007c.008.02.02.02.035.016.024-.004.047-.012.07-.012.012 0 .024.008.036.012-.008.004-.02.004-.028.008-.043.012-.086.015-.12.039-.005.004-.005.012.003.012h.008a.266.266 0 0 1-.125.043c-.004 0-.008.003-.008.003v.016c0 .004 0 .004.004.004.016 0 .027.008.04.012h.007c-.063.02-.125.023-.184.05-.043.02-.082.043-.125.055a.293.293 0 0 0-.097.035c-.004 0-.004.008 0 .012.054.008.105-.012.164-.016-.02.016-.043.024-.047.047 0 .004 0 .008.008.008.015-.004.027-.012.043-.015.03-.012.004.011 0 .015a.082.082 0 0 0-.024.016c-.02.011-.05.027-.05.054 0 .004 0 .008.003.008a.495.495 0 0 1-.086.051c-.015.008-.03.016-.043.027-.015.016-.027.032-.043.047-.02.02-.085.031-.07.07 0 .004.004.004.004.004-.059.032-.117.063-.164.11-.004.004-.004.008 0 .012.027.007.047-.008.07-.004-.023.023-.047.039-.07.058-.012.016-.031.024-.047.035-.02.016-.031.04-.055.047-.003.004-.003.012 0 .012.008-.004.016-.004.02-.008a1.887 1.887 0 0 1-.195.184.048.048 0 0 0-.028.043s0 .004.004.004h.02c.004 0 .004 0 .008-.004.011 0 .02 0 .027.011a.104.104 0 0 0-.02.024c-.015.012-.027.027-.039.043H4.86c-.03.02-.05.05-.078.074-.008.016-.02.027-.027.043-.008.012-.016.016-.016.031-.004.012.008.012-.004.035-.011.02-.007.02-.015.043 0 .016-.032.043-.043.047a.049.049 0 0 0-.024.032c-.004.003 0 .007.008.007s.02-.004.031-.004c.008 0-.007.016-.007.016l-.024.024c-.004.003 0 .011.004.011-.004.004-.008.012-.012.02-.015.015-.03.031-.05.047-.02.02-.047.043-.051.074 0 .004.004.008.011.008.008-.004.02-.012.032-.016-.012.012-.032.027-.032.043v.004H4.56l-.016.012c-.031.027-.063.058-.102.07a.368.368 0 0 0-.086.047c-.027.023-.058.047-.085.074 0 .004.003.008.007.008.024-.024.047-.04.075-.059a.265.265 0 0 1 .09-.054.21.21 0 0 0 .05-.028s0 .004.004.004c-.02.024-.043.035-.066.05a.348.348 0 0 0-.11.118c-.004.004.004.008.008.004l.016-.016c.008-.011.035-.02.023.008-.008.016-.02.028-.023.043 0 .008.004.008.008.008.007 0 .007-.004.015-.008-.02.024-.043.043-.058.067-.043.058-.106.097-.157.148-.004.004.004.008.008.004.043-.035.094-.066.133-.11a.215.215 0 0 1 .027-.035l-.027.04a1.01 1.01 0 0 1-.137.133c-.02.015-.035.038-.058.054a.25.25 0 0 1-.051.039.057.057 0 0 0-.024.035c0 .004.004.004.008.004a.661.661 0 0 0 .121-.05l.004-.005a.213.213 0 0 0-.074.082c0 .004.004.008.008.004.027-.054.082-.078.125-.12 0-.005.004-.005.008-.009a.114.114 0 0 1 .035-.007c-.016.027-.04.046-.035.082l-.012.011a.352.352 0 0 1-.04.036c-.003.007-.007.011-.007.02.004.003.004.003.008.003a.75.75 0 0 1 .055-.059s.003.004.003 0c.016 0 .047-.023.04-.004a.135.135 0 0 0-.036.032c-.007.011-.02.02-.02.035-.015.004-.03.02-.03.035v.004a.092.092 0 0 0-.024.035c0 .02.02.012.035 0-.011.012-.02.024-.03.031-.04.016-.071.043-.103.067-.07.043-.125.113-.183.168-.004.008 0 .011.004.008.008-.004.012-.012.02-.016l.015-.008c.016-.008.016-.008.004 0-.008.004-.008.012 0 .012.031-.004.05-.024.074-.035.012-.004.024-.004.027-.004-.003.008-.011.011-.023.015-.035.016-.09.043-.094.086 0 .004.004.004.004 0 .004-.02.031-.039.047-.054.02-.02.047-.02.066-.036.004 0 .004 0 .004-.003 0 .003-.004.007-.004.007-.003.008-.007.012-.011.02-.008.012-.02.027-.024.039-.011.02-.035.031-.054.043a.175.175 0 0 0-.043.05c-.016.02-.028.044-.047.06a.306.306 0 0 1-.07.042c-.04.024-.063.051-.094.082-.004.004 0 .008.004.004a.159.159 0 0 0 .039-.035c.004 0 .004-.004.007-.008-.023.028-.046.059-.07.086-.043.016-.09.051-.105.086a.009.009 0 0 0 .011.012c.04-.02.075-.05.106-.082l.027-.012c.008 0 0 .004 0 .012-.008.015-.02.031-.027.043-.031.039-.059.074-.094.11-.008.007-.015.01-.027.019l-.035.011c-.012.004-.024.012-.036.016-.035.016-.078.016-.117.02-.004 0-.004.007 0 .007a.372.372 0 0 0 .16-.023c-.007.004-.011.008-.015.012s-.004.004-.004.007c-.05.032-.106.063-.16.09-.082.051-.156.137-.262.145-.004 0-.004.008 0 .008.102 0 .18-.082.266-.133.047-.024.097-.05.14-.078-.062.054-.133.101-.172.175-.003.004.004.012.008.008l.035-.011a.632.632 0 0 0-.07.039c-.035.02-.066.035-.102.054-.007.004-.003.016.004.012.063-.031.125-.066.184-.098.012-.007.027-.015.04-.027v.012c0 .008 0 .015.003.023a64.74 64.74 0 0 0-.012.012c-.008.004-.015.012-.027.012v-.004c0-.008-.008-.008-.008 0v.004h-.008c-.011 0-.011.02 0 .015h.008v.004c0 .004 0 .008.004.008.016 0 .027 0 .04-.004a.116.116 0 0 0-.048.066l.004.008c.016 0 .027-.008.043-.008a.15.15 0 0 0-.035.036l-.008.011a.583.583 0 0 1-.117.07c-.031.016-.102.051-.133.012-.004 0-.008.004-.004.008.024.031.07.02.106.008a.185.185 0 0 0-.043.05c-.004.009 0 .013.004.013a.025.025 0 0 0 .023 0l-.102.062c-.003 0 0 .008.008.004.055-.031.11-.063.168-.094.016-.008.028-.012.043-.023 0 .004 0 .004-.004.004-.023.015-.043.039-.066.058a.442.442 0 0 1-.149.074c-.003.004-.003.008 0 .008.04.004.083-.027.118-.043 0 0 .004 0 .007-.004 0 .004 0 .004.004.004a.381.381 0 0 0-.07.067l-.012.015-.007.008-.004-.004c-.012.012-.024.016-.036.024-.011.004-.02.008-.023.015h-.008l-.004.004c-.02.008-.035.016-.054.02-.016.004-.024.02-.036.031-.015.016-.03.031-.05.043.02-.012.039-.023.054-.04.024-.019.043-.026.07-.038l-.007.008c-.004.004 0 .007.004.007l.023-.011h.004c.004 0 .004 0 .004-.004.012-.008.023-.012.031-.02.008 0 .012 0 .02-.004.004 0 .008-.004.012-.007.007-.004.02-.004.03-.008.005 0 .013-.004.02-.004a.114.114 0 0 1 .063-.027.167.167 0 0 0-.043.046c-.004 0-.004.004-.008.008-.031.024-.059.059-.09.082-.031.02-.066.012-.097.028a.421.421 0 0 0-.145.101c0 .004 0 .008.004.004.05-.047.113-.101.187-.101a.075.075 0 0 0 .04-.012c-.02.02-.043.043-.07.054-.005 0-.013.008-.016.012a.094.094 0 0 0-.047.028c-.016.007-.028.011-.04.02-.023.01-.046.023-.07.034-.008.004-.05.028-.054.024-.004-.004-.004 0-.004 0 .007.011.05-.012.062-.016.028-.012.059-.023.086-.039-.027.023-.055.047-.058.086 0 .004.007.008.011.004h.004a1.45 1.45 0 0 1-.125.09.363.363 0 0 1-.113.02c-.008 0-.031-.005-.04.003-.015.012-.034.012-.05.027-.004 0 0 .004.004.004.035-.027.082-.023.125-.027a.196.196 0 0 0 .047-.008c-.059.04-.113.102-.188.106-.011 0-.007.015 0 .015h.028a.253.253 0 0 0-.063.067c0 .008.004.015.012.011.031-.011.055-.039.09-.043.004 0 .004-.007 0-.007h-.012c0-.004.004-.008.012-.012.039-.024.074-.05.12-.066.009-.004.02-.004.032-.004-.016.015-.031.03-.043.046-.047.055-.09.102-.137.153-.043.012-.082.035-.12.05-.044.024-.087.055-.134.07-.003.005-.003.009.004.009.047-.016.086-.043.13-.059.038-.015.074-.035.109-.055a.091.091 0 0 1-.028.028c-.027.031-.066.05-.097.078-.024.02-.043.043-.063.066-.02.008-.043.02-.066.028a1.937 1.937 0 0 0-.211.086c-.024.015-.035.043-.07.043-.004 0-.004.011 0 .011.019 0 .03-.004.046-.015.024-.02.04-.036.067-.047.062-.031.129-.051.191-.07.008-.004.012-.008.024-.008-.051.047-.118.074-.16.129-.008.007 0 .015.007.015.02-.004.035-.008.051-.023.016-.016.043-.024.063-.035.007-.004.023-.012.035-.016-.012.012-.024.023-.035.039-.004.012-.024.02-.032.031-.011.012-.023.028-.039.043a1.344 1.344 0 0 1-.136.117c-.043.004-.086-.027-.125.004 0 0 .003.008.003.004.028-.023.067-.004.098.004h.004a.253.253 0 0 0-.035.031.623.623 0 0 1-.125.063c-.024.008-.05.016-.078.023-.032.008-.059.028-.09.035-.004 0-.004.004 0 .004.016 0 .031-.003.047-.007l.09-.032c.039-.007.07-.023.105-.039-.016.016-.031.032-.047.051-.054.055-.11.11-.176.152-.004.004-.004.016.004.016.043-.004.075-.027.11-.047.03-.015.062-.035.093-.05a.917.917 0 0 1-.097.074.362.362 0 0 0-.055.054c-.023.02-.047.04-.074.055-.043.031-.094.059-.133.098-.016.02-.027.043-.043.062l-.058.059c-.004.004 0 .011.007.011a.13.13 0 0 0 .078-.02h.004a.101.101 0 0 0-.027.044c-.004.004.004.004.004.004.016-.04.055-.063.09-.082-.012.008-.024.02-.035.027-.07.067-.13.149-.2.215-.007.008.004.023.012.016.016-.02.04-.028.059-.047.011-.008.03-.024.047-.032.003.02-.024.047-.032.055l-.043.059c-.027.047-.078.074-.101.125 0 .008.008.015.015.011-.011.012-.023.02-.03.032-.013.015-.024.03-.036.047-.012.015-.031.03-.047.046a.95.95 0 0 0-.078.098c-.008.008-.012.016-.016.02a.275.275 0 0 1-.117.047c-.004 0-.004.011.004.011a.167.167 0 0 0 .086-.023.188.188 0 0 0-.035.043s-.004.004-.004.008a.085.085 0 0 0-.031.02.573.573 0 0 1-.219.093c-.004 0-.004.008 0 .008.07 0 .14-.035.2-.07l.027-.016-.012.015-.055.055c-.02.02-.047.035-.07.059-.012.011-.024.03-.008.043.012.011.023.007.035 0-.074.082-.164.156-.203.265 0 .004 0 .008.008.008v.004c-.004 0-.008.004 0 .004 0 .004.008.004.008.004 0 .008 0 .011.007.011.012 0 .02-.003.032-.011l.015-.016c-.015.024-.039.04-.05.063-.016.039-.016.074-.024.113a.641.641 0 0 1-.012.043l-.011.012c-.012.011-.016.035-.024.046a.047.047 0 0 1-.02.02H.759c-.004.004-.008.008-.012.008-.004.004-.008.004-.016.008v.004h.02a.021.021 0 0 0 .02-.012c.003-.004.007-.004.011-.008-.004.004-.004.008-.004.008-.011.023-.011.05-.023.074a.106.106 0 0 0-.031.04c-.004.007.007.015.015.01.016-.007.024-.023.032-.034 0 0 0-.004.003-.004-.011.031-.03.062-.046.09a.678.678 0 0 0-.055.148c-.016.016-.04.027-.055.043-.004.004 0 .012.004.008.016-.016.035-.024.055-.035 0 0 .004.004.008.004h.003l-.015.011c-.024.02-.047.032-.067.059l.004.004c.016-.024.043-.031.067-.047l-.043.035a.366.366 0 0 0-.094.11c-.004.007.008.015.016.007.03-.043.07-.074.11-.11a.153.153 0 0 1 .038-.03v.004c0 .007-.004.007-.004.011 0 .012-.004.02-.011.032-.012.019-.024.05-.04.066-.011.008.004.023.012.016.024-.012.04-.051.05-.075v.012c0 .008.009.012.013.012h.004c0 .011-.004.023-.004.035-.067.047-.141.082-.192.148-.004.004.004.008.008.008.055-.055.121-.094.184-.137V18.684a.03.03 0 0 1-.008.02c-.008.007-.004.015-.004.023 0 .011.012.02.02.011l.011-.011c-.008.011-.012.023-.02.035-.007.011-.015.023-.019.035-.012.008-.023.02-.031.027-.027.024-.063.043-.09.063a.132.132 0 0 1-.055.035.052.052 0 0 0-.023.02s0 .007.008.003a.18.18 0 0 0 .07-.039c.023-.023.055-.039.082-.058-.008.011-.016.02-.02.035-.003.004-.003.012.004.015.047.024.094-.023.125-.054l.012-.012c.074.008.07-.062.09-.113-.008.035-.012.07-.023.101-.016.02-.032.043-.051.063-.028.027-.051.062-.078.094-.012.011-.028.02-.04.03-.011.016-.019.028-.042.036-.004 0-.004.012 0 .012.035 0 .043-.032.07-.047a.37.37 0 0 0 .078-.094c.016-.023.035-.043.055-.066-.004.007-.004.011-.004.015-.024.051-.05.102-.059.157-.004.007.008.02.016.011a.561.561 0 0 0 .07-.097c.02-.04.063-.075.082-.114.004-.008.012-.015.012-.02a.311.311 0 0 0-.031.063c-.012.035-.024.07-.04.106a.135.135 0 0 0-.015.078c0 .004.004.004.004 0 0-.035.02-.067.031-.098.016-.035.027-.066.04-.101.01-.028.03-.055.046-.082l.027-.051v-.004c.004 0 .008-.008.008-.012-.008.051-.035.09-.058.137-.016.035-.016.078-.028.117-.011.035-.03.074-.047.106-.003.007.008.015.016.011.04-.023.063-.058.09-.093a.244.244 0 0 1 .039-.063c.004 0 .004 0 .004-.004-.016.024-.031.05-.05.074-.028.047-.052.098-.079.145-.004.004.004.004.004.004.023-.035.047-.074.066-.11a.497.497 0 0 1 .051-.074c-.004.012-.008.02-.008.028-.004.007-.008.011-.008.015v.004c-.007.027-.02.055-.023.078a.186.186 0 0 0-.031.07c0 .004.004.004.004 0a.082.082 0 0 1 .015-.023h.016c0 .004.008 0 .008-.004 0-.008 0-.012.004-.02.03-.035.062-.077.097-.113-.008.012-.008.024-.008.036 0 .003 0 .007.004.007.028.012.059-.011.079-.03.019-.009.035-.02.05-.028a.163.163 0 0 1 .059-.043c-.027.058-.078.101-.113.156-.004.004 0 .012.004.012.066.023.101-.04.152-.063-.004.028-.024.043-.035.067-.004.004 0 .011.008.011a.193.193 0 0 0 .09-.043c.015-.007.03-.02.042-.027-.008.023-.02.047-.02.074 0 .004.009.004.009 0a.226.226 0 0 1 .027-.082l.059-.023c-.016.02-.032.039-.032.066 0 .004.008.004.008 0 .004-.027.027-.047.043-.07l.008-.008c.016-.004.031-.012.047-.02a.37.37 0 0 1 .09-.019v.004a.43.43 0 0 0-.102.137c-.004.007.008.015.012.007a.687.687 0 0 1 .148-.152.346.346 0 0 0 .11-.027c.043-.02.085-.035.128-.051.008 0 .016-.004.024-.004-.004.004-.008.004-.016.008a.4.4 0 0 0-.086.078c-.004.004 0 .008 0 .004a.727.727 0 0 1 .157-.11c.011-.003.02-.011.03-.019.016-.012.032-.023.048-.039-.004.004-.008.012-.012.012-.02.015-.04.027-.04.054 0 .004 0 .008.009.008.02 0 .031-.008.047-.02l.011-.019a.139.139 0 0 0-.007.04c0 .003.007.003.007 0 .012-.028.028-.052.043-.075l.012-.012c.016-.02.035-.039.05-.058.005-.004.013-.012.02-.016a.104.104 0 0 0 .024-.02c-.004.016-.004.028-.004.04 0 .003.004.007.012.007l.039-.011c-.016.015-.024.035-.04.054-.003 0 0 .008.005.004.015-.011.023-.031.039-.043.02-.02.039-.031.058-.047.02-.015.04-.035.059-.054.015-.012.031-.028.047-.04-.012.016-.02.032-.028.048-.004.003 0 .003.004.007.031.028.086-.023.117-.058a.129.129 0 0 0-.027.05c0 .004.008.008.008 0 .008-.015.027-.03.039-.042a.468.468 0 0 1 .043-.047c.012-.008.02-.02.031-.032.031-.023.063-.05.098-.066.054-.031.113-.055.168-.094a.117.117 0 0 0-.016.032c-.012.035-.031.058-.015.097.003.008.011.008.015 0a.739.739 0 0 0 .067-.11.727.727 0 0 1 .09-.124c.007-.012.019-.02.027-.028-.012.024-.024.043-.028.07-.004.005.004.009.008 0 .016-.05.051-.093.082-.14 0 0 0 .004.004.008-.004.004-.004.012-.004.02 0 0 .004.003.008 0 0-.004 0-.008.004-.012.004 0 .008 0 .012-.004.015-.02.027-.047.039-.07.008-.008.015-.016.02-.024v-.008a.274.274 0 0 1 .03-.039c-.003.004-.003.008-.003.012-.004.016.015.02.02.008.015-.028.023-.047.05-.063 0-.004 0-.004.004-.008-.004.016 0 .028.004.043.004.004.008.004.008 0 .007-.027-.004-.05.02-.074.01-.015.03-.027.042-.043.016-.027.05-.047.07-.078 0 .004.004.004.008 0a.121.121 0 0 0 .059-.05c0 .011-.004.019-.004.027s.012.008.012.004v-.043a.184.184 0 0 0 .035-.047c.027-.032.05-.059.074-.09.016-.024.023-.043.039-.067-.004.02-.02.04-.027.055-.004.008.004.02.011.012.04-.04.067-.082.094-.125l.035-.043-.011.031c-.016.051-.043.094-.02.145 0 .004.008 0 .008-.004-.024-.055.012-.106.027-.16 0-.008.004-.02.008-.028s.008-.008.012-.015a.527.527 0 0 0-.016.11c0 .007.008.007.008 0 0-.04.008-.083.02-.122.003 0 .003-.004.007-.008 0 .008-.004.016-.008.024-.003.003.004.007.004.003.012-.015.012-.027.02-.042 0-.004.004-.004.008-.012v-.004a.085.085 0 0 1 .015-.02.296.296 0 0 0-.02.118c0 .007.013.007.016 0a.52.52 0 0 1 .067-.168l.012-.028v.02c-.004.008-.008.015-.008.02-.008.011.008.023.015.011l.004-.004c.028-.05.055-.105.086-.156l.004-.004v.039c0 .008.012.008.012 0v-.059c.02-.03.043-.062.062-.097a.26.26 0 0 0 .008.144c0 .008.012.004.008-.004a.3.3 0 0 1 0-.175c.008-.016.016-.032.023-.051a.377.377 0 0 0 .004.094c0 .003.004.003.008 0 .004-.051.004-.102.016-.149l.008-.008c.015-.035.039-.062.054-.097.008-.012.016-.024.016-.04.008.005.015.008.012.016-.008.004-.012.012-.02.02-.012.015-.008.054-.004.078 0 .004.008.008.012.004l-.012.02c-.004.011 0 .038 0 .05v.055c0 .012.016.012.016 0 0-.051.027-.113.05-.156a.192.192 0 0 0 .016-.082c0-.012.004-.028.004-.04h.004c0-.003.004-.007.004-.011v.067c0 .003.004.01.012.007a.091.091 0 0 0 .027-.027.337.337 0 0 1 .039-.063c-.004.027-.008.055-.008.082 0 .004.004.004.004 0 0-.035.004-.066.012-.098l.07-.093a.46.46 0 0 0-.023.105c0 .031 0 .063-.004.094 0 .02-.004.039.008.062l.003.004h.012c.008 0 .008-.007 0-.007-.027-.004-.008-.098-.008-.118.004-.054.016-.105.028-.156l.011-.012c-.011.036-.035.067-.023.102 0 .008.008.012.012.008.031-.028.05-.059.07-.09 0 0 0 .004-.004.004-.015.027-.035.058-.027.09.004.008.015.011.015 0 .004-.028.016-.051.024-.078.008-.012.02-.028.023-.036.008-.011.016-.027.024-.039-.004.016-.012.032-.012.051-.004.008.012.012.016 0 .007-.047.03-.086.05-.129.02-.035.032-.066.047-.101-.004.015-.004.043-.008.058a.639.639 0 0 0-.007.086v.012c0 .016.02.016.02.004 0-.024.015-.055.023-.078.007-.032.023-.063.035-.094a.161.161 0 0 1 .027-.043c.008-.012.027-.023.035-.035 0-.004.004-.008.004-.012a.277.277 0 0 0-.02.102c0 .004 0 .007.008.007.024-.003.04-.035.047-.054.02-.04.04-.078.063-.117 0-.004 0-.004.004-.008 0 .012-.004.023-.004.039 0 .004.012.008.012 0 0-.02.003-.043.007-.063.012-.02.028-.039.04-.062a1.055 1.055 0 0 0-.016.191c0 .004.008.004.008 0a1.34 1.34 0 0 1 .027-.218c.004-.012.012-.02.016-.032l.043-.066s0-.004.003-.004c-.003.004-.003.008-.007.016-.008.039-.024.078-.028.117 0 .008.008.015.016.011.055-.03.059-.113.066-.168v-.011.027c0 .063.012.121.016.184 0 .008.012.008.012 0 .004-.063-.012-.121-.012-.184 0-.035.004-.07.008-.105a.21.21 0 0 1 .031-.082c.004.027-.012.05-.016.078 0 .008.012.011.016.004a.343.343 0 0 0 .027-.09c0-.016.008-.035.016-.055-.004.04-.004.078-.004.117 0 .008.012.008.012 0a.855.855 0 0 1 .047-.129v.008c0 .004.004.004.004 0 .004-.039.023-.074.039-.11-.004.036-.004.071-.008.106s-.012.075-.016.11c0 .035.012.07.016.105 0 .012.016.012.016 0-.004-.09-.008-.18.003-.27.008.02.012.036.02.051.008.036-.004.07.012.106 0 0 .007 0 .007-.004v-.086c0-.027-.015-.055-.02-.082a.198.198 0 0 1-.007-.05c.004-.02.012-.044.016-.063.004-.004-.004-.008-.004-.004-.004.008-.008.012-.012.023 0-.008.004-.011.004-.011.008-.028.027-.047.035-.07.004 0 .004-.005.008-.009 0 .043 0 .086.004.13.004.054.02.109.02.167 0 .012.019.012.019 0 .004-.11.043-.21.078-.316.008-.024.02-.047.027-.074v.082c0 .054-.011.105.016.152 0 .008.008.004.012 0 .011-.031.011-.062.015-.094 0-.039.008-.082.016-.12a.607.607 0 0 1 .02-.09c-.004.007-.004.015-.004.023-.016.11-.016.219-.016.332 0 .004.004.004.004 0 0-.121.004-.238.02-.356l.011-.062c.012-.027.02-.059.031-.086v.09c0 .035-.003.07.004.105.008.031.008.063.008.098 0 .004.004.008.008 0 .016-.016.023-.04.031-.063v.008c0 .02 0 .04.016.055.004.004.012 0 .008-.008-.02-.02-.012-.055-.012-.082-.004-.012-.004-.023-.008-.035 0-.008 0-.016.004-.02.004-.043.004-.086.008-.132h.004c.004.003.011 0 .011-.008v-.078c.012.015.016.054.02.07.004.004.008.004.012.004.031-.004.039-.035.039-.067.004.028.008.059.015.079 0 .054 0 .113.02.164.004.007.008.004.008 0a.378.378 0 0 1-.016-.149c.004.004.008.004.012.004.008-.004.012-.008.02-.02.011-.019.019-.046.027-.074 0 .012.004.02.008.028 0 .03-.004.062-.008.093 0 .043-.008.094.015.133.004.004.012 0 .012-.004-.027-.043-.02-.097-.016-.144.004-.02.004-.043.004-.063h.008c.008.028.02.051.02.086 0 .008.011.008.011 0 0-.047-.027-.094-.035-.136.004-.02.004-.043.004-.063.012-.027.02-.059.031-.09v.012c0 .004.004.008.008.008.012-.004.016-.016.02-.024l.011-.035a.39.39 0 0 0 .032.16c.004.004.008 0 .008-.004a.394.394 0 0 1-.024-.21l.012-.047c0 .015.004.035 0 .046v.079c0 .007.012.007.012.003.003-.027.023-.043.027-.066.004-.016.012-.035.016-.055.003.02-.004.04.007.059 0 .004.008 0 .008-.004-.004-.016 0-.035-.004-.055v-.039c.008-.035.016-.07.028-.105.003-.008.007-.012.011-.02.008-.011.012-.023.02-.035 0-.008 0-.012.004-.02.004-.007.008-.023.015-.035 0-.007.004-.015.008-.023a.03.03 0 0 1 .008-.016.76.76 0 0 1-.02.079l-.011.07c-.004.023-.02.039-.024.062 0 .008.012.012.016.008a.277.277 0 0 0 .031-.07c0-.004 0-.012.004-.012-.004.02-.004.043-.004.063 0 .004.004.004.008 0 0-.036.004-.067.012-.098a.765.765 0 0 1 .023-.055.262.262 0 0 0 .027-.07.167.167 0 0 1 .02-.063c0 .012 0 .024-.004.032 0 .015-.008.043-.012.058-.004.008-.007.012-.007.016-.004.008.003.016.007.008h.004a1.084 1.084 0 0 0-.023.25c0 .004.008.004.008 0 0-.098.015-.196.035-.29a.391.391 0 0 0 .039-.081v-.012c.004 0 .004 0 .004-.004v-.008c0-.004.004-.004.004-.004-.004.04 0 .075-.004.114 0 .015-.004.027 0 .046 0 .008.015.008.015-.003v-.028c0-.047.024-.09.04-.133v.11c0 .004.007.008.011.004-.012.039-.023.078-.023.113 0 .004.008.004.008 0 0-.04.015-.078.027-.117a.77.77 0 0 0 .027-.102c.004-.02.012-.043.016-.062a.053.053 0 0 1 .023-.028c0 .028-.004.055-.004.082 0 .008.008.012.012.008.027-.031.035-.074.059-.105-.004.015-.004.035-.008.054-.004.028-.008.055 0 .082.004.004.008 0 .004-.003a.289.289 0 0 1 .039-.168v-.004c.004-.004.008-.008.008-.012.011-.016.023-.031.027-.047 0-.004.004-.004.004-.008.004 0 .004.004 0 .016-.004.039-.024.07-.027.11 0 .007.011.011.015.003a.463.463 0 0 1 .055-.086.188.188 0 0 0-.04.13c0 .003.005.003.005 0a.23.23 0 0 1 .027-.099.306.306 0 0 1 .063-.078c-.008.016-.012.032-.016.047 0 .004.004.012.008.008.031-.008.047-.039.062-.062.008.027-.011.046-.015.074 0 .008.004.011.007.011.008-.003.012-.007.016-.02a.488.488 0 0 1 .031-.046c.016-.023.035-.039.059-.059 0 .008-.004.012-.004.02-.008.02-.02.04-.027.063 0 .003.004.011.008.011.019 0 .023-.015.035-.027 0 .004-.004.008-.004.012 0 .011 0 .02-.004.027 0 .004.004.004.004.004-.004.012-.004.023.004.031.004 0 .007 0 .011-.004 0 0 .004 0 .004-.004-.004.004-.004.008-.004.008-.004.016-.011.027-.011.043 0 .004.004.008.011.008.008 0 .012-.004.02-.008-.012.012-.016.031-.02.047-.007.016-.02.031-.027.047-.008.008.004.015.012.012.015-.012.023-.028.035-.04.012-.003.02-.015.023-.023 0 .004 0 .008-.004.012-.011.023-.027.058-.02.086h.005c-.004.011-.008.023-.004.035 0 .004.004.004.008 0 .015-.047.062-.078.078-.125.004-.024.004-.05.012-.074 0-.008 0-.012.003-.02 0 0 .004 0 .004-.004.016.078-.054.149-.054.227 0 .008.008.011.011.004.016-.02.024-.043.04-.063.003-.004.027-.02.027-.015 0 .007 0 .015-.004.023 0 .012-.008.023-.012.035-.008.008-.012.016-.015.024-.02.027-.047.05-.067.074-.008.008-.015.015-.015.027-.008.016-.004.031-.012.047s-.02.027-.028.043c-.007.012-.007.031-.015.047 0 0 .004.004.004 0 .008-.012.015-.02.02-.035.007-.02.023-.04.034-.059.008-.016 0-.031.008-.05.012-.016.032-.032.043-.048-.004.008-.015.016-.02.024a.209.209 0 0 1-.019.07L7 14.68c0 .004.004.008.012.008.031 0 .054-.02.078-.047a.668.668 0 0 0-.035.117c-.008.012-.016.023-.024.039-.011.023-.05.082-.031.11h.004c-.02-.032.035-.098.05-.122v.004s.005.004.008.004c.012 0 .024-.004.036-.008-.012.027-.012.047.004.055l-.036.066c-.035.051-.086.082-.086.149 0 .004.004.004.004 0a.163.163 0 0 1 .055-.102l.055-.074.023-.035c.004-.004.004-.004.004-.008.02-.031.035-.066.05-.102.005 0 .009-.004.013-.007 0 0 .03-.012.03-.016l-.003.016c-.016.039-.035.074-.055.109-.015.023-.043.07-.031.098.004.007.008.011.012.015a.922.922 0 0 1-.227.153c-.004 0 0 .007.004.007.094-.027.168-.093.238-.156.02 0 .043-.012.059-.02-.012.079-.106.126-.133.196-.004.008.008.016.016.012l.097-.079c-.003.004-.007.008-.007.012-.032.035-.055.07-.082.102-.02.02-.047.027-.055.058 0 .004.008.008.008.004.011-.011.02-.023.035-.031.012-.008.02-.016.031-.027.024-.032.043-.063.07-.094a.414.414 0 0 0 .04-.047c.011-.012.027-.02.039-.027-.008.015-.012.035-.02.054-.012.028-.02.063-.027.09a.774.774 0 0 1-.192.164c-.004 0 0 .004.004.004.059-.043.121-.082.176-.136 0 .003-.004.003-.004.003-.023.047-.078.067-.11.102-.019.023-.042.05-.054.078 0 .004.004.012.008.008.008-.004.015-.012.023-.016-.047.043-.086.078-.11.137 0 .004.005.008.009.004a.361.361 0 0 1 .113-.129v.004c-.016.055-.066.094-.094.144 0 .008.008.016.016.008a.136.136 0 0 1 .058-.047.25.25 0 0 1-.039.051.159.159 0 0 1-.035.04l-.027.01c-.008.005-.004.02.004.02a.081.081 0 0 0 .039-.023.081.081 0 0 1 .023-.008c.016 0 .028-.004.043-.004.035.004-.015.055-.02.063-.007.015-.027.027-.03.039 0 .004-.004.004-.004.004s-.004 0-.004.004c-.004.004 0 .008.004.008a.085.085 0 0 0 .03-.02l-.07.094c-.035.035-.058.082-.097.11-.008.003 0 .01.004.007.047-.031.078-.082.113-.125.02-.02.035-.04.05-.059h.005l-.024.047c-.008.02-.011.04-.02.063-.027.035-.058.066-.09.101-.003 0 0 .008.005.004a.737.737 0 0 0 .078-.078l-.012.035a.722.722 0 0 1-.226.235c-.004 0-.004.007.004.007a.561.561 0 0 0 .19-.18c-.01.028-.022.06-.034.087a.69.69 0 0 0-.059.148c0 .004.004.008.008.004.008-.016.016-.031.02-.047 0 .012-.004.024-.004.04 0 .007.007.01.015.007A.39.39 0 0 0 7 16.082v.008a.12.12 0 0 0-.027.055.291.291 0 0 1-.028.046c-.008.016-.011.036-.02.051l-.042.09c-.024.043-.063.078-.094.113 0 .004.004.012.008.008.023-.027.055-.055.074-.082-.008.02-.016.043-.027.067-.024.054-.09.09-.137.125-.008.003 0 .015.008.011.031-.015.058-.035.094-.043-.036.032-.07.059-.102.094-.004.004 0 .012.004.012h.012l-.024.015c-.004.004 0 .008.004.004a.14.14 0 0 1 .043-.015c.012-.004.027-.004.035-.008-.027.027-.05.058-.074.086a.085.085 0 0 0-.035.027.156.156 0 0 0-.047.04c0 .003 0 .01.008.01h.004l-.032.036a.389.389 0 0 0-.043.04c-.023.026-.066.026-.097.042-.024.008-.035.027-.05.047 0 0 .003.004.003 0a.276.276 0 0 1 .07-.047c.016-.004.035-.004.055-.008a.135.135 0 0 0-.047.047c-.012.016-.02.016-.039.02a.008.008 0 0 0-.008.007.17.17 0 0 0-.02.047c0 .004.005.008.008.008.012 0 .024-.012.036-.012a.17.17 0 0 1-.04.063.07.07 0 0 0-.027.02c-.008.007-.011.03-.023.03-.004.005 0 .009.004.009a.008.008 0 0 0 .008-.008c.003-.008.007-.012.011-.02.004.004.004 0 .008 0 0-.008.008-.012.012-.012 0 0-.004 0-.004.004l-.008.008c-.004.004 0 .008-.004.016-.012.02-.027.035-.047.039-.004 0-.004.008 0 .008a.064.064 0 0 0 .043-.028c-.008.012-.015.024-.02.035-.003.004 0 .008.005.008.011 0 .023-.004.035 0-.004.004-.008.004-.012.012-.027.023-.062.043-.09.07 0 .004.004.008.004.004.031-.027.067-.043.098-.07-.016.023-.055.05-.074.07-.012.008-.02.02-.036.028-.027.007-.054.02-.066.039-.004.004 0 .015.008.011.012-.004.02-.004.027-.007l-.012.011c-.011.016-.046.024-.062.032a.588.588 0 0 0-.066.039c-.004.003 0 .007.003.003.032-.011.063-.027.094-.042l-.023.03c-.028.02-.051.04-.047.075h.004a.08.08 0 0 1 .035-.05v.007c0 .004.004.008.008.008h.035a.786.786 0 0 0-.211.164c-.004.004.004.008.004.004a.738.738 0 0 1 .18-.133c-.004 0-.008.008-.012.012a.492.492 0 0 0-.078.078c-.004.004.004.008.004.004a.472.472 0 0 1 .062-.063c-.004.008-.004.02-.008.024-.008.011-.02.02-.023.03-.004.005-.008.009-.008.013-.023.03-.047.047-.074.066a.266.266 0 0 0-.047.047v.004a.679.679 0 0 0-.05.058c-.005.004.003.008.007.004.004-.007.012-.011.016-.02 0 .005-.004.009-.004.013h.004c.004-.012.023-.032.035-.047.004-.004.004-.008.008-.012.003-.004.011-.008.015-.012 0-.004 0-.004.004-.008l.043-.035c.008 0 .012-.004.016-.008l-.012.028c-.012.015-.027.02-.043.031a.167.167 0 0 0-.043.047c-.012.023-.027.043-.031.07 0 .008-.004.012-.004.02s.012.008.012 0a.184.184 0 0 1 .023-.059c.004-.008.004-.015.008-.02 0-.003 0-.003.004-.007a.124.124 0 0 1 .047-.043h.004c.007-.004.011-.008.02-.012 0 .004 0 .008-.005.012 0 .008-.004.015 0 .023.008.012.024 0 .024.016-.004.016-.016.023-.02.035a.263.263 0 0 0-.027.043.281.281 0 0 0-.04.094c0 .004.005.008.008.008.012-.004.016-.016.024-.024-.012.027-.024.055-.024.082 0 .004.008.008.012.004.012-.016.024-.031.04-.047-.016.028-.04.059-.048.094-.003.035-.02.062-.023.098-.004.011-.008.02-.008.027-.004.012 0 .027-.008.039 0 .008.012.008.012.004a.426.426 0 0 1 .024-.043c-.008.027-.016.05 0 .059.011.003.019-.004.027-.016-.004.031-.012.062-.012.09 0 .023 0 .043.004.07 0 .02 0 .016.004.027 0 .012.004.02.008.028a.42.42 0 0 0 .004.12c.004.005.011.009.015 0a.114.114 0 0 0 .02-.054c.004-.015.004-.027.008-.039.004-.023-.004-.043.011-.062v.007c-.004-.003-.004 0-.004.004s.004.008.004.008a.19.19 0 0 1 .004.047v.016c-.004.027-.004.047-.004.074 0 .023-.004.047-.004.07 0 .02-.007.04-.003.063 0 .004.011.011.015.004.004 0 .008 0 .008-.004v.03c0 .048-.004.09-.004.138-.004.027 0 .062.027.082.004 0 .008 0 .012-.004.031-.055.027-.125.055-.184 0 .004.004.004.004 0 .004-.004.004-.008.004-.012v.055c-.004.043-.016.082-.028.13 0 0 .004.003.008 0 .012-.032.024-.06.031-.095 0 .04 0 .075.008.114.008.035.004.078.05.074.005 0 .009-.004.005-.004v-.035c0-.035.02-.008.027.004.012.027.02.058.031.086a.108.108 0 0 0 .036.027c.015 0 .023-.012.027-.023.004-.02.004-.043.016-.06.023-.042.046.067.046.079.004.035 0 .07.004.105 0 .008.008.02.012.032 0 .004.004.008.004.011 0 .024-.012.043-.008.063 0 .004.008.012.012.008.016-.004.023-.024.027-.04v.032a.111.111 0 0 0 0 .05c0 .009.004.012.012.012-.004.028-.004.07.008.09H6.59c-.004.008 0 .012.008.008l.004-.004c0 .004.003.004.003.004a.054.054 0 0 1 .012-.015l.008.007c.02-.004.02-.027.027-.039v.032c0 .019.008.035.008.054 0 .012.008.012.02.012v.012c0 .007.008.007.011.004.008-.004.008-.016.012-.024.008.012.016.05.016.055.004.012.004.027.008.039.003.012.007.02.02.023.007.008.015-.004.019.012.011.04.007.078.023.113.012.032.02.075.024.11 0 .007.007.011.015.007l.008-.015.004.008v.015c0 .012 0 .024.004.035.008.024.008.051.015.079.004.02.02.027.024.043.008.02.004.043.008.062.011.05.035.098.046.145.008.039.024.074.047.105v.004l.004.004c.012.05.028.098.043.148l.106.301c.031.094.066.188.105.277l.047.094c0 .027.016.05.016.074 0 .008.011.016.015.008l.004-.004c.008.032 0 .067.016.098.004.004.008.008.015.004.012-.008.012.05.016.058.004.02 0 .043.016.055.004.004.008.004.011.004.008.016.004.05.016.059.004.004.008.004.012 0 .004 0 .07.054.07.058.004.008.008.008.012.004h.004c0 .004.004.004.004.004s.004.004.004 0c.007.008.015.012.023.02.023.015.039.035.059.054a.402.402 0 0 0 .218.117.453.453 0 0 0 .125.012c.055.004.11.008.16.016.102.008.2.02.297.02.098 0 .192-.024.286-.028.078-.008.156-.004.23-.008.02 0 .043 0 .062-.004.008.004.016.008.02.012.02.004.047.016.055-.004.004-.004.004-.008.008-.012v-.004a.1.1 0 0 0 .019.008c.02 0 .04-.004.059-.008.004 0 .007 0 .011-.003.008-.004.016-.004.024-.004a.325.325 0 0 0 .058-.016l.004.004c.008.004.02-.008.02-.016h-.004c.004-.004.004-.004.004-.008.004 0 .004 0 .004-.003.02.007.047-.004.062 0 .024.007.059.011.059-.024 0-.02-.016-.039-.035-.055a.196.196 0 0 0-.028-.03c.008.003.02.007.032.007.003.004.003.004.007.004.008 0 .008-.004.012-.004s.004 0 .008.004c.016.004.031.016.043.012.027-.004.023-.04.015-.059a.336.336 0 0 0-.082-.102c-.023-.023-.046-.05-.074-.054.004-.004.004-.004.008-.004.004-.004.004-.008 0-.008l-.031-.004c-.004-.012-.012-.012-.02-.02-.008-.003-.015-.011-.023-.011-.016 0-.031-.008-.047-.008-.012 0-.012 0-.008-.012.004-.004-.004-.011-.008-.015-.02-.012-.047-.012-.07-.012-.004 0-.012.004-.02.004-.011-.004-.019-.012-.03-.012-.016 0-.032 0-.048-.008-.023-.011-.046-.011-.07-.023-.016-.004-.031-.004-.047-.012-.023-.004-.043-.015-.066-.027-.016-.004-.031-.004-.047-.008-.043-.008-.082-.004-.125 0-.05.004-.11.004-.16 0-.024-.004-.051-.004-.074-.012a.079.079 0 0 0-.043-.011.328.328 0 0 0-.122.02l-.023.01H8.18c-.008 0-.016 0-.024-.003.004.004.004.008.008.008-.016-.004-.031-.012-.043-.016-.02-.004-.039-.004-.055-.012-.011-.003-.027-.011-.039-.015l-.011-.02c.007 0 .015-.011.007-.02-.039-.038-.058-.097-.101-.132-.02-.016-.02-.031-.027-.05-.008-.02-.024-.04-.032-.055.004-.004.004-.008.004-.012-.004-.012-.008-.024-.015-.035-.008-.016-.008-.036-.02-.051a.467.467 0 0 1-.043-.102c-.008-.023-.023-.043-.031-.066-.012-.031-.012-.059-.031-.09-.008-.012-.004-.027-.012-.043a.226.226 0 0 1-.02-.055c-.008-.03-.02-.062-.023-.097-.004-.035-.016-.067-.027-.098-.004-.02-.012-.039-.016-.059-.004-.039-.024-.078-.024-.113v-.012c.016-.03.012-.066.012-.097-.004-.028-.004-.055-.004-.082 0-.012.004-.024.008-.031l.008.015c.004.008.016.024.023.02.004 0 .004 0 .004-.004.004-.008 0-.012-.004-.016 0-.008-.007-.023 0-.02.004.005.008 0 .008-.003.008-.028 0-.059.008-.09a.082.082 0 0 0 .016-.043c.003.027.015.055.043.058.003 0 .007 0 .007-.003 0-.008.004-.02.004-.032.004.032.008.063.024.09.004.008.011.008.011 0 .04-.152.024-.312.024-.465v-.03a.139.139 0 0 1 .008.038c.004.008.011.004.015 0v-.008c.016.04.024.075.055.106.02.02.035-.008.031-.028-.015-.054-.011-.109-.023-.164 0-.011-.004-.02-.004-.03v-.068s0 .005.004.005c0 .004.004.004.008.004l.004.003c.003.004.015 0 .015-.003a.657.657 0 0 1-.027-.172c0-.008 0-.016-.004-.024.008-.062.016-.117.02-.18a.222.222 0 0 0 .011-.113s0-.008.004-.011a.72.72 0 0 1 .024.16c0 .008.007.015.015.011.043-.027.027-.12.027-.16-.003-.082-.015-.164.02-.238v.09c0 .008.008.012.012.004a.261.261 0 0 0 .039-.121c.008-.008.008-.028.011-.04a.074.074 0 0 0 .02.04c0 .004.008.004.012 0 .027-.032.035-.07.047-.11.011-.039.039-.074.058-.11 0 .048-.008.087-.008.13 0 .027-.007.07.012.09 0 .004.008.004.008 0a.388.388 0 0 0 .055-.106l.023-.066c-.004.023-.008.043-.008.062 0 .004.004.008.008.004.012-.008.016-.023.024-.035 0-.004.003-.008.007-.012a1.071 1.071 0 0 0-.02.11c0 .008.009.008.012.004.051-.051.051-.125.086-.188a.37.37 0 0 0 .036-.082c.011-.023.023-.047.035-.066.023-.032.047-.063.07-.098-.004.023-.008.043-.008.055-.004.008.004.008.008 0 .035-.07.113-.114.145-.188a.222.222 0 0 1 .046-.07s-.003 0-.003.004c-.004.008-.004.023-.004.035-.008.016-.008.027-.012.043 0 .004.004.004.008 0 .035-.047.058-.098.097-.14.016-.012.028-.036.043-.052l.012-.019c0 .004 0 .008-.004.016 0 0 .004.003.008.003.012-.003.016-.007.023-.019.016-.02.032-.035.047-.055.012-.02.028-.035.043-.05.012-.016.016-.032.028-.043.078.02.164-.082.187-.145 0 0 0-.004-.004-.004h-.004l.086-.07c.004-.004.004-.004.004-.008a.881.881 0 0 0 .086-.043c.035-.023.063-.05.102-.063v.012c0 .004.004.008.007.004a.06.06 0 0 0 .032-.023v.004c-.063.09-.145.164-.18.27-.004.003.004.007.008.007.05-.02.09-.063.117-.11.008-.019.027-.023.047-.035a.466.466 0 0 0 .062-.03c.036-.016.063-.044.09-.067.004 0 .008-.004.012-.008-.012.05-.035.094-.05.144-.005 0 0 .008.003.008.012 0 .016-.004.02-.008-.004.047-.028.09-.047.13-.016.035-.028.074-.043.109-.004.004 0 .008 0 .008.015.011.027 0 .039-.008l-.004.008c-.027.046-.059.085-.082.132-.016.036-.031.078-.02.114 0 .004.004.004.008.004.028 0 .047-.012.074-.024-.015.016-.035.031-.046.05-.012.017-.016.032-.024.048-.008.023-.012.047-.02.07-.003.012-.011.02-.015.035 0 .008.004.012.012.012a.091.091 0 0 0 .027-.027c-.012.023-.02.047-.027.07-.016.05-.028.102-.04.156v.031c0 .012-.003.028-.003.043a.204.204 0 0 1 .011.07c0 .028.004.055.012.083-.004.027-.012.054-.02.082-.003.023-.023.043-.03.058a.138.138 0 0 0-.012.055c0 .008.011.012.011.004.02-.02.036-.047.047-.066 0 .015-.004.035-.004.054-.004.032-.015.067-.02.102v.07c0 .004.009.008.012.004a.445.445 0 0 0 .075-.133c.011-.023.027-.043.039-.066.011-.024.02-.047.035-.067v.028s0 .004.004.004c-.004.05-.04.105-.043.156-.004.039-.012.078-.02.117-.004.035-.011.067 0 .098 0 .008.008.008.012.004.035-.04.04-.086.063-.13.015-.03.039-.058.05-.09.008.114-.058.224-.043.337 0 .004.004.004.004 0 .012-.024.028-.047.04-.074v.054c0 .012 0 .028.007.04.004.003.012.003.012 0 .008-.02.008-.04.012-.06a.09.09 0 0 1 .023-.046c.004-.008.012-.012.02-.02l.023-.035c.008-.008.008-.027.016-.039 0 0 .004-.004.004-.008-.008.04-.008.075-.016.11a.169.169 0 0 0 .023.129c0 .004.008 0 .008-.008s.004-.016.004-.024v.024c.004.02.008.031.012.047.004.027.023.047.031.07a.147.147 0 0 1 .004.04c.004.026.012.07.027.073 0 .032-.008.07-.004.102 0 .027.012.047.024.07h.004c-.008.05-.02.098-.024.149 0 .007.012.011.016.007.02-.02.02-.046.035-.07.035.07.008.164.012.242 0 .008.008.012.011.004 0 .02 0 .04-.003.059-.008.023-.008.05-.008.074.004.031.02.063.031.098.004.004.004.007.012.007h.004c.007 0 .011-.003.011-.011 0-.004.004-.008.004-.012a.492.492 0 0 0 .012.04.539.539 0 0 1 .031.112c.004.02-.015.067.012.078.008 0 .012 0 .012-.003.011-.016.011-.036.011-.055.051.098.09.203.114.308v.032a.23.23 0 0 1-.008.054c0 .008 0 .016.004.02s.008.004.011.004h.004c.008.02 0 .043 0 .058.004.008.012.012.016.008 0 .02-.004.04 0 .059 0 .008.008.012.012.008.004 0 .004-.004.004-.004.004.015.007.031.007.047a.167.167 0 0 0 .04.093c.023.032.058.051.09.07.038.024.078.044.12.06.036.015.07.027.106.038.039.016.082.02.117.043.012.008.027.008.043.016l.059.023c.011.004.023.016.039.016.02.004.043-.008.062.004.035.016.074.023.11.039.039.016.078.027.117.035a.63.63 0 0 1 .113.035c.012.008.024.012.035.016 0 .004.004.004.008.004l.04.012c.007 0 .01.003.019.007.035.02.066.043.101.063a.588.588 0 0 0 .133.062c.04.016.074.028.113.047.035.024.075.04.117.051.036.008.075.008.11.012.043.008.09.015.137.027.082.016.16.027.242.024.066 0 .136.003.203 0a.19.19 0 0 1 .047.003h.004c.015 0 .03.004.043.004.015.004.015-.023 0-.023h-.004c.008 0 .02 0 .027-.004 0 0-.004-.004-.008-.004.008 0 .016.004.024.008s.023.008.031.004c.004 0 .008-.004.012-.004.008-.008.011-.024.008-.035 0-.004 0-.004-.004-.008l.004-.004c.003-.012.007-.02.007-.027.004-.008.04-.012.047-.012.016-.008.035-.008.051-.012.004 0 .004 0 .004.004.004-.004.004-.004.008-.004.008.004.015.004.027.008.004 0 .012-.008.012-.012s-.004-.007-.004-.007c.004 0 .004-.004 0-.004 0-.004 0-.004-.004-.008h.008c.027 0 .062.004.078-.008a.008.008 0 0 0 .008-.008c.004-.008 0-.012-.004-.02-.004 0-.004-.003-.008-.007.016.004.031 0 .027-.02a.092.092 0 0 0-.023-.035l-.012-.012v-.003c.004-.004-.004-.008-.008-.012-.004 0-.007-.008-.011-.012-.012-.016-.024-.023-.032-.035.012-.004.024-.008.032-.02-.028-.011-.063-.003-.094-.011-.05-.016-.106-.055-.152-.082-.032-.016-.051-.028-.086-.032-.032-.003-.059-.003-.086-.007a.656.656 0 0 0-.262-.004.425.425 0 0 1-.102.015.808.808 0 0 1-.34-.12c-.035-.024-.07-.052-.109-.063-.031-.008-.066-.008-.101-.02-.043-.015-.079-.043-.121-.066-.032-.024-.075-.031-.11-.051-.039-.02-.078-.027-.117-.047-.04-.015-.066-.043-.102-.055-.011-.007-.046 0-.054-.007-.016-.012-.012-.036-.02-.051-.015-.024-.039-.04-.05-.059-.036-.066-.044-.148-.067-.218-.012-.04-.02-.075-.027-.11-.004-.031-.028-.078-.024-.105 0-.032.02-.055.02-.09.004-.094-.004-.192.011-.285.016.054.028.113.067.16.004.004.015.004.015-.004.028-.063.008-.137 0-.203-.003-.063 0-.125 0-.188a.229.229 0 0 1 .008.051c0 .012 0 .02.004.027.008.028.024.047.024.07 0 .009.011.012.015.005.035-.036.035-.09.035-.137.004-.055-.004-.113-.007-.168.027.031-.004.094.043.121.003.004.007 0 .007-.008 0-.035.004-.07.008-.11 0-.038.012-.073.028-.109.007-.03.02-.058.027-.085 0 .054.012.105.062.128.004 0 .008 0 .012-.003a.988.988 0 0 0 .047-.207c.004-.02.004-.036.004-.055 0-.02.02-.043.027-.063a.492.492 0 0 0 .012-.039v.094c0 .008.016.008.016 0 .003-.086.039-.164.066-.246l.012-.05c.004 0 .004.003.004.003.004.008.015 0 .02-.004l.01-.02c.005-.003.005-.007.005-.007v-.004.086c0 .008.008.008.011.004.024-.09.047-.172.067-.258v.02c-.004.019-.004.035-.004.05 0 .016-.004.035.004.051.004.008.012.004.015 0 .008-.031.008-.055.024-.082.012-.02.012-.047.027-.066v.007c0 .004.004.008.008.008.02 0 .027-.023.035-.039.012-.023.02-.055.035-.078.02-.043.04-.09.059-.129.02-.043.043-.082.055-.121l.03-.059a.386.386 0 0 0 .036-.093.578.578 0 0 1 .04-.141c.003-.012.01-.023.015-.035v.02c0 .003.008.007.008.003.015-.02.02-.039.027-.062.008-.016.012-.031.016-.047-.004.012-.004.023-.004.031.004.004.007.004.011 0a.173.173 0 0 0 .024-.097c.008-.047.035-.094.05-.141a.895.895 0 0 0 .028-.11c.004-.011.004-.027.008-.039v.012c0 .012.023.016.023 0v-.012c0-.007 0-.015.004-.023.016 0 .027-.008.043-.02.004 0 .008-.003.016-.007 0 0-.004.004-.004.008-.004.011-.016.027-.024.039-.007.011-.015.02-.023.03-.004.005.004.013.012.013.02-.008.035-.028.05-.04 0-.003.004-.003.008-.007.008.004.02.004.028 0a.112.112 0 0 0-.028.07c0 .004 0 .004.004.004.02.004.04-.027.055-.035.031-.02.07-.032.097-.055-.02.016-.035.031-.054.047-.04.023-.078.047-.102.086 0 .004.004.004.004.004a.294.294 0 0 1 .063-.059c.02-.015.039-.023.054-.035l.055-.055a.426.426 0 0 1-.023.043c-.016.024-.04.047-.059.07-.012.02-.02.04-.035.06-.004.003 0 .007.004.007a.096.096 0 0 0 .043-.016c.023-.015.047-.03.07-.047.012-.007.027-.019.04-.023a.559.559 0 0 0-.06.043.137.137 0 0 0-.066.074c-.004.004 0 .008.004.004.016-.047.062-.066.098-.094.011-.007.02-.015.03-.023l.017-.012a.047.047 0 0 1-.02.02c-.004.004 0 .012.004.008.012-.008.023-.02.035-.032a.047.047 0 0 1-.02.02.439.439 0 0 0-.07.078c0 .004.004.004.004.004.016-.02.04-.04.059-.055 0 .004-.004.004-.004.008-.012.016-.02.035-.031.05v.005l-.004.004c-.004.004 0 .007.004.004l.043-.024c.003-.004.011-.004.015-.008.012-.008.02-.02.027-.027-.015.027-.027.055-.05.078a.115.115 0 0 0-.032.098c0 .004.008.004.008.004a.74.74 0 0 1 .074-.082l.036-.032c.02-.015.039-.047.054-.062l.008-.008-.012.04c-.007.019-.004.038-.011.054-.008.015.011.02.015.008.004-.004.004-.008.004-.016a.04.04 0 0 0 .024-.02c.015-.011.03-.03.047-.046.007-.008.02-.016.03-.016.005 0 .012-.004.016-.004.012-.008.016-.016.024-.023-.004.039-.043.07-.047.113 0 .004.008.008.012.004.027-.028.05-.055.078-.082.008-.012.02-.024.031-.035.012-.012.024-.028.035-.04a.183.183 0 0 1-.02.04.265.265 0 0 0-.046.086c-.004.003 0 .007.008.003a.35.35 0 0 0 .12-.093c-.003.008-.007.02-.015.027-.012.02-.031.04-.035.063 0 .003.004.007.008.003a.44.44 0 0 0 .047-.07c.011-.02.015-.039.03-.058l.024-.036-.035.106c-.008.031-.031.058-.027.094 0 .007.008.011.012.003.023-.027.039-.058.062-.085a.223.223 0 0 0 .027-.032.193.193 0 0 0 .118-.062c.043-.035.082-.078.12-.117a.097.097 0 0 0-.015.035.559.559 0 0 1-.043.058c-.016.028-.035.055-.055.082-.004.004.008.012.008.004.031-.043.067-.086.094-.133.016-.027.027-.054.05-.074.012-.011.016-.02.02-.027l-.023.035c-.02.031-.04.063-.047.098-.004.004.004.008.004.008.02-.004.031-.02.043-.028.023-.015.047-.027.066-.039.02-.012.04-.027.063-.035-.012.016-.02.031-.032.043-.011.02-.02.039-.027.059-.012.023-.023.043-.031.066-.004.004.004.012.008.008.023-.024.039-.051.066-.067.04-.03.074-.058.113-.086.028-.02.063-.043.09-.066.008-.008.02-.02.035-.027l-.066.054a.362.362 0 0 0-.055.055c-.015.02-.023.04-.039.059 0 0 .004.004.008.004.027-.032.055-.07.09-.098.023-.02.043-.043.066-.059.012-.008.028-.015.04-.027a.274.274 0 0 1-.032.039c-.012.023-.027.047-.043.07-.004.004-.012.012-.012.016-.004.008.004.012.008.008l.012-.024a.161.161 0 0 1 .043-.027c.027-.016.047-.035.074-.047.047-.023.098-.043.145-.062.02-.008.035-.02.054-.032.008-.004.012-.007.016-.004a64.74 64.74 0 0 0-.012.012v.012l-.008.008c-.003.011.008.02.02.011.02-.02.043-.023.062-.035.024-.011.043-.027.067-.039.023-.012.043-.027.066-.035a.103.103 0 0 0 .059-.027c.047-.028.09-.063.137-.09a.427.427 0 0 1 .058-.031h.004l-.004.007-.023.036c-.008.02-.024.043-.024.066 0 .004 0 .008.004.008.016.004.028-.004.04-.012.019-.012.034-.027.054-.043.016-.012.039-.039.062-.047a.024.024 0 0 0-.003.028c.007.02.023.011.043 0a.274.274 0 0 0 .039-.032.072.072 0 0 0 .03-.027c.013-.012.024-.02.04-.031h.008c-.008.008-.016.015-.028.023a.104.104 0 0 0-.02.024c-.003.004-.007.011-.015.011-.004 0-.004.008 0 .008.008 0 .008 0 .012-.004.016-.02.043-.035.059-.05.011-.012.027-.024.039-.036.004-.004.023-.004.03-.008.005 0 .005 0 .009-.003.004 0 .004 0 .007.003-.007.004-.02.012-.02.016-.015.016-.023.027-.034.043-.02.02-.043.027-.047.055 0 .004 0 .008.004.008.035-.004.062-.024.097-.036a.182.182 0 0 0 .04-.02c.003-.003.007-.007.015-.007-.004.004-.008.008-.008.012-.011.02-.023.035-.035.055 0 .003.004.007.008.007.016-.004.027-.02.04-.027.023-.02.042-.043.07-.055l.062-.035c.015-.012.031-.027.05-.039a.105.105 0 0 0 .032-.027c-.004.011-.012.02-.016.031-.011.02-.015.043-.023.062 0 .008.004.012.008.008.027-.015.05-.047.074-.062.015-.012.035-.02.05-.028.008-.003.012-.007.016-.011l-.043.054c-.004.004 0 .008 0 .004.024-.03.055-.05.082-.074.004-.004.008-.004.016-.008.039-.027.078-.039.113-.066.012-.012.028-.02.035-.027-.007.007-.02.015-.023.03-.004.005 0 .009.004.009.027-.004.047-.032.07-.047.008-.004.02-.012.028-.012a.145.145 0 0 0-.067.086s0 .004.004 0c.012-.04.05-.07.09-.094l-.012.02.004.004c.004-.008.008-.016.016-.024.004-.008.015-.008.023-.012a.19.19 0 0 1 .043-.015.414.414 0 0 0 .078-.047c.004 0 .008 0 .004-.004a.418.418 0 0 1 .086-.059c-.004.008-.008.008-.008.016a.474.474 0 0 0-.054.04c-.028.019-.047.042-.07.066-.02.015-.04.035-.06.054-.007.008-.019.02-.015.032 0 .003.004.007.004.007.023-.004.039-.015.059-.027.027-.016.058-.031.09-.047l.007-.004c-.012.012-.027.028-.043.035-.02.012-.039.02-.054.028-.012.004-.024.015-.036.023-.004.004 0 .004.004.004.028-.016.059-.027.082-.043.028-.016.047-.039.075-.059l.039-.023c.027-.02.054-.047.09-.059-.008.008-.02.016-.028.028-.023.02-.05.031-.074.054-.02.024-.055.047-.063.082 0 .004.004.008.008.008.016-.004.028-.015.04-.023.019-.016.05-.027.077-.04.04-.01.067-.046.106-.062.004 0 .004-.004.008-.004a.21.21 0 0 0-.063.082c0 .004.004.004.004 0a.27.27 0 0 1 .086-.09c.008-.007.016-.011.023-.015.004 0 .012-.004.02-.008.02-.004.035-.02.05-.035l.067-.047c0 .004-.004.008-.004.008-.02.02-.035.043-.035.07 0 .004.004.008.008.004.02-.012.027-.031.047-.043l.058-.047c-.007.016-.02.035-.027.051-.004.004 0 .02 0 .027v.047c0 .008.012.008.012 0 0-.027.02-.047.031-.066.008-.008.012-.012.016-.02v.02s0 .004.004.004c.027.004.046-.031.058-.047.012-.016.04-.023.055-.04.004-.007.012-.007.02 0l-.012.02c-.008.008-.016.016-.02.028 0 .004.004.008.008.008a.089.089 0 0 0 .035-.032c.012-.015.035-.03.047-.043.02-.02.039-.035.059-.05-.016.02-.043.035-.063.058a.498.498 0 0 0-.027.047c-.004.004 0 .004.004.004a.858.858 0 0 1 .054-.07c.012-.012.028-.02.04-.032.015-.02.027-.035.042-.05 0-.004.008-.008.008-.012l.035-.024c.047-.015.094-.043.14-.062-.01.031-.05.055-.077.07-.035.024-.067.04-.098.067-.004.004 0 .011.004.011.035-.004.066-.015.098-.023.023-.008.047-.02.066-.027l.05-.024c.005 0 .013-.008.017-.012-.016.016-.024.04-.036.059-.027.035-.07.055-.093.09-.004.004-.004.008.003.008.016.004.032-.008.043-.016l.075-.047c.011-.008.023-.008.035-.012h.008c.011-.003.015-.015.027-.023.008-.012.02-.02.031-.027.008-.008.012-.02.02-.028-.008.028-.043.04-.04.07l.005.005c.015.003.023-.008.035-.016a.232.232 0 0 1 .074-.043l-.02.035a.554.554 0 0 0-.066.137c-.004.004-.008.008-.008.02 0 .011.012.015.02.007-.016.055-.059.098-.078.153-.004.007.007.015.015.007.008-.007.016-.02.028-.027v.016c0 .004 0 .004.004.004.007.003.015.003.027.003l-.016.012c-.015.012-.027.02-.031.035a.04.04 0 0 0 .004.012h.012c0 .004.004.004.007.004.016 0 .04 0 .059-.004v.004c.004.004.004.004.008.004.004.004.008.004 0 .004-.008.008-.016.011-.024.011-.007.004-.02.004-.03.004-.005 0-.005.008 0 .008h.007c-.004 0-.004.004-.004.004.008.016.02.063.047.059h.004c0 .004 0 .008.004.011.004.004.004.008.004.012v.04s0 .003.004.003c0 .004.003.004.003.004h.012c.024.004.051 0 .074-.008a.357.357 0 0 1-.027.055c-.016.031-.004.058-.016.09-.003.023-.003.039.012.05-.008.032-.02.067-.031.102 0 0 0 .008.004.012.02.008.043-.012.055-.04 0 .016 0 .032-.004.048-.004.039-.012.082-.012.12 0 .009.015.012.015 0 0-.023.02-.05.032-.074-.004.028-.016.055-.02.086a.333.333 0 0 0-.012.125c.004.008.012.008.016.004-.004.02-.004.035-.008.051-.004.02-.015.055-.004.074.012.02.028.004.036-.011.003-.004.007-.008.007-.016 0 .008 0 .012.004.016-.004.039-.004.074-.008.109-.003.023-.003.047-.011.07-.004.016-.004.028-.008.04-.004.011.004.023-.004.035-.004.007 0 .011.004.015 0 .024.012.043.027.063h.004c.008.015.02.03.016.047 0 .007 0 .011.004.019 0 .008.011.008.015 0 0-.004.004-.008.004-.012.004.02.012.035.016.051.008.031 0 .074 0 .11 0 .007.008.011.012.007.035-.02.043-.066.07-.09V18.32c0 .012-.012.024-.016.035-.004.02-.02.086.008.102 0 .004 0 .008.004.016.004.007.004.015.012.023 0 .012.004.024.004.035 0 .008.007.004.007 0v-.027.008c.008.004.016.004.02 0 .02-.004.023-.024.027-.04v-.007c.024.02.016.055.016.082 0 .008 0 .015.004.027v-.004.024a.093.093 0 0 0-.012.035c0 .02-.012.039-.012.058 0 .004.004.008.004 0 .004-.015.012-.03.016-.05v-.004.008c0 .004.004.007.008.007h.004c0 .008 0 .016-.004.024 0 .004.008.004.008 0 .003-.008.003-.016.007-.024-.004.02-.004.036-.004.055 0 .004 0 .008.004.008.008.004.008 0 .016 0 0 .031-.02.059-.02.09 0 .027-.007.058 0 .086 0 .004.004.008.008.008.004-.004.004-.004.008-.004.008.023-.012.05-.004.078 0 .004.004.008.008.004.008-.004.004-.004.004.004 0 .003 0 .011.004.02 0 .01 0 .026.012.034.003.004.011 0 .011-.004a.05.05 0 0 1 .004.024v.137c-.004.023-.008.046-.008.07 0 .008.012.012.016.004a.03.03 0 0 0 .008-.016c.023.04.004.078-.008.113-.012.024-.012.036 0 .059-.004.012-.008.02-.008.031-.004.008.008.012.012.008s.004-.004.008-.004c-.004.012-.004.02-.004.031 0 .008.008.008.012.008 0 .008-.004.02-.004.028 0 .035 0 .074-.012.109a.078.078 0 0 0 .008.058c-.004.016-.008.028-.004.043 0 .004.008.008.015.004a.03.03 0 0 0 .008-.02l.008.009v.023c0 .031-.012.059-.008.09v.004c0 .012-.004.023-.004.035-.004.02.004.04.008.055 0 .02 0 .039-.004.054 0 0 .004.008.008.008.004.004.012.004.012 0 0 .035 0 .07.015.102 0 .004.012.004.012-.004 0 .015.004.031.004.047 0 .004.008.004.008 0 0-.032.004-.059.004-.09v.008c.004.035.015.07.02.105h.007c-.004-.015-.004-.027-.004-.043v.004c.004.004.004.008.008.012 0 .031.016.062.023.094.008.027.016.066.047.078 0 0 0 .004.004.004-.004.003-.004.007-.004.015 0 .004.008.008.012.004 0 .059.004.117.016.172.007.043 0 .086 0 .129a.43.43 0 0 0 .007.07v.004c-.011.024 0 .031.004.055 0 .031-.007.062-.007.09a.354.354 0 0 0 .011.129c.035.105.047.226.09.328.027.07.07.156.129.203.055.043.113.047.172.078.027.016.047.035.078.043.023.004.047 0 .074.008.024.004.043.02.067.027.058.008.14-.016.199-.023.11-.016.203-.043.312-.04.114 0 .223-.019.332-.019.114 0 .23-.004.348-.008.05 0 .297.035.27-.058.015.004.148.074.105-.008.059.004.117.031.18.02-.004 0-.004-.005-.004-.005.023.004.066.016.055-.023.027-.004.14.02.09-.05.042.007.05-.005.046-.02-.012-.035-.082-.098-.094-.114-.015-.082-.105-.097-.171-.117-.118-.035-.235-.086-.356-.113-.125-.031-.254-.027-.383-.023-.129 0-.258-.004-.386 0-.137.003-.301.046-.434-.012-.129-.059-.137-.238-.156-.36-.012-.093-.008-.187-.024-.285-.004-.027-.008-.054 0-.082.016-.035.063-.062.032-.101.015-.008.015-.067.027-.067.008 0 .012-.004.012-.008v-.05s.007 0 .007-.004c0-.016-.003-.028-.007-.043h.004a.008.008 0 0 0 .007-.008c0-.066.004-.129.012-.195.004-.035-.004-.059-.008-.094-.004-.031-.004-.063-.004-.098-.004-.031-.027-.062-.007-.097a.114.114 0 0 0 .02-.055.605.605 0 0 0-.005-.168c.04.004.055-.055.063-.082a.323.323 0 0 1 .03-.086c.005-.008.017-.016.024-.016v.04c0 .007.008.007.008 0v-.04c.008 0 .012.008.012.024 0 .012 0 .023.008.031.015.012.035.008.043-.004.015-.02.02-.047.027-.07l.012-.035c0 .015 0 .03.004.047 0 .007.007.007.011 0 0-.036-.004-.067.004-.098.008-.024.016-.04.04-.043.003-.004.007-.004.011-.004.004.012.012.016.023.008 0 0 .004-.008 0-.012.028-.035.047-.082.079-.117v.004c0 .004.003.008.007.008.04-.004.051-.063.059-.106v.008a.07.07 0 0 0 .027.031c.008 0 .012-.004.012-.008 0-.007 0-.02.004-.027.008.012.016.023.027.004.004-.008.004-.016.004-.02 0-.011.008-.015.012-.023a.224.224 0 0 0 .016-.027v.011c.003.028.007.055.03.078.005.008.013.008.016 0 .02-.019.028-.042.036-.066 0 .004.003.008.007.008 0 .004.008 0 .004-.004a.056.056 0 0 1-.008-.023c.004-.02.004-.036.004-.055 0-.031 0-.059.012-.09l.024-.066c.007.03.007.074.039.086.03.007.054-.04.066-.059a.336.336 0 0 0 .035-.105c0-.008.008-.012.008-.02v.027c0 .012 0 .02.004.028.004.007.016.007.016 0 .011-.016.015-.04.023-.059a.03.03 0 0 0 .008-.02l.012-.023c.03.012.05-.027.066-.07v.02c0 .011.012.019.016.027.003.004.011 0 .011-.004a.03.03 0 0 0 .008-.016c.008.012.02.02.031.008.012-.012 0-.043.004-.059.004-.011.004-.023.012-.039.039.008.066-.047.078-.074.023-.039.035-.086.05-.129l-.003.094c0 .004.004.008.012.008.004 0 .02.008.027-.004a.137.137 0 0 0 .023-.055c.016-.043.024-.098.063-.133.008.035-.008.07 0 .106.004.023.027.039.05.027.028-.015.044-.058.055-.09l.012-.039.004.004c.023.008.043 0 .063-.015a.228.228 0 0 0 .043-.06v.044c0 .008.011.012.015.004a.474.474 0 0 0 .059-.086c0 .027.008.05.039.039.035-.016.043-.059.066-.082.024-.02.028-.047.043-.074 0 .035.012.062.055.043.027-.012.047-.055.066-.075.012-.015.024-.035.04-.05l.023-.036c.008.028-.004.098.027.094.027-.004.047-.039.059-.058l.035-.07c.008-.016.058-.087.058-.04 0 0 0 .004.004.004.032.012.063-.031.078-.05.02-.02.036-.047.051-.07.024-.017.035-.048.055-.071.016-.02.027-.04.043-.055-.004.008-.004.012 0 .02.008.02.02.023.039.011.012-.008.031-.027.035-.043 0-.02.016-.043.024-.058.003.008.011.008.02 0 .038-.024.046-.074.066-.114 0 .004.003.008.011.012.008.008.016.008.024.004 0-.004.004-.004.004-.004 0-.004 0-.012.003-.02.004.012.008.02.008.028 0 .004.004.008.008.008.016-.004.024-.02.027-.035.008-.02.02-.043.032-.067 0 .004-.004.008-.004.012s.008.016.015.008a.099.099 0 0 0 .04-.059c.003-.015.007.024.011.024.004.011.008.02.02.023.004 0 .011 0 .011-.004.02-.039.036-.078.059-.113a.389.389 0 0 1 .04-.043h.007c.004 0 .004-.004 0-.004l.023.031c.008.008.02.012.032.02.015.008.027.027.043.035l.054.031c.016.008.047.028.067.02.011-.004.007-.024.007-.035.016.003.032.02.043.027.016.008.024.012.04.012.019.007.046.011.054.015.055.016.11.028.164.035.004.004.012-.003.012-.007 0-.016.016-.012.031-.008.012.004.024.012.04.02.019.007.046.011.07.011.02 0 .035-.004.058.004.008.004.016.004.024.008.015 0 .023.004.035.004h.004c.015.007.011.015.02.023.01.008.027.012.038.016.028.011.051.027.078.035.032.008.043-.008.047-.031.02.004.04.015.063.023l.066.012c.012.004.024.004.035.008l.016-.004a.03.03 0 0 1 .016.008.69.69 0 0 0 .128.03.124.124 0 0 0 .098-.011c.031-.016.078-.004.113-.008.008 0 .008-.004.008-.008a.782.782 0 0 0 .094.016.509.509 0 0 1 .152.035c.051.016.102.031.149.051.023.012.047.016.066.023.02.004.04.02.059.02.012.004.015-.008.012-.016-.012-.02-.02-.043-.032-.062.043.008.082.039.117.058a.46.46 0 0 0 .075.043c.023.016.105.059.132.028 0-.004 0-.012-.003-.016l-.004-.004c.027.008.05.028.074.043.023.02.05.031.074.05.031.024.094.067.137.052.004 0 .008-.012.008-.016a.153.153 0 0 0-.032-.039c.078.035.141.105.23.105.009 0 .016-.007.009-.015-.008-.012-.016-.02-.024-.031.055.02.102.058.16.058.008 0 .016-.008.008-.015-.004 0-.004-.004-.008-.004.04.011.07.03.106.039.031.011.055.027.086.035a.352.352 0 0 0 .039.035c.012.012.027.023.039.012.004 0 .004 0 .004-.004.035.035.07.07.11.086.003 0 .007 0 .01-.004.009-.012.013-.02.009-.027.02.011.039.03.05.05.012.024.04.047.067.047.004 0 .008 0 .012-.004.007-.027-.012-.054-.032-.082.036.035.063.086.114.102.004 0 .007 0 .007-.004.008-.008.008-.02.004-.031l.118.086c.003.004.015 0 .015-.008 0-.016-.008-.031-.012-.043.016 0 .028.008.043.008l.008.007c.012.008.024.004.028-.007.015.011.023.039.035.047.02.015.043.027.058.046l.024.028c.008.008.02.004.031.011.016.012.04.016.059.028.015.015.035.027.054.043a.511.511 0 0 0 .106.074h.004v.008c.011.004.02.039.023.05.008.012.016.016.027.016.004 0 .012 0 .012-.008.008.016.012.032.024.043.004.004.007.004.011.004.008-.004.012-.008.012-.011.012.007.012.015.016.027.008.012.023.023.03.035H25.349a.07.07 0 0 0 .02.027c.015.016.007.043.015.059.008.02.023.035.035.055a.387.387 0 0 0 .043.066c.004.004.004.004.004.008.004.004.008.008.008.016 0 .003 0 .007.004.011 0 .004.003.004.007.008.016.035.036.07.051.106.027.054.05.113.07.175.012.032.02.067.024.102.008.031.004.062.008.09.004.035.015.066.015.101.004.024-.007.047-.004.07 0 .016.012.04.028.055.012.02.023.035.035.051.008.004.016.012.023.016l.004.066c0 .035-.015.067-.011.098 0 .015.011.043.03.047.048.004.067-.082.083-.114.008-.007.008-.03.012-.039.003-.023.007-.047.02-.066.007-.008.019-.016.019-.024.004-.007.004-.015.007-.02 0 0 .004 0 .004.005 0 0 0 .004.004.004 0 .011.016.008.016 0 0-.028-.004-.059-.004-.09.012-.016.012-.04.008-.067.008-.015.008-.027.008-.039 0-.02-.008-.039-.012-.054l.012.027c.027.047.054.09.078.137v.004c.004.004.004.011.004.02.007.027.007.058.011.09 0 .003.004.007.008.007a.1.1 0 0 0 .008.047c0 .004.004.008.008.008-.004.023-.012.054-.004.074.015.031 0 .074.02.101.003.004.011.004.011 0 .008-.007.012-.015.02-.023.007.078.02.152.03.23.005.024 0 .051.009.07.008.016.015.036.023.051.012.024 0 .055 0 .082a.14.14 0 0 0 .008.043c0 .016-.004.024-.008.04-.004.011 0 .023.012.023v.016c0 .003.008.007.012.007.003 0 .003 0 .007-.003 0 .007-.003.015-.003.015 0 .024 0 .047-.004.07-.004.024-.02.063.003.079.024.015.055-.02.067-.032a.283.283 0 0 0 .047-.097c.004.011.004.02.012.027h.007c.028-.027.051-.063.075-.094v.035c0 .004.003.008.003.008.012.004.028.012.04.012v.027c0 .024-.012.047-.008.067.004.008.008.011.011.011.032-.003.055-.03.07-.058.016-.024.024-.051.036-.074l.023-.036v-.011c.004 0 .004-.004.004-.004v-.024s.004.004.008.004c-.004.008-.004.012-.008.016 0 .004.004.008.008.008.02-.016.02-.043.023-.067.004-.004.004-.011.004-.015a.048.048 0 0 0 .036-.016c.011-.02.03-.05.023-.074 0-.004.004-.004.004-.008.023-.047.008-.102-.004-.148a1.521 1.521 0 0 1-.047-.192c-.008-.058-.035-.117-.055-.176a3.742 3.742 0 0 0-.128-.285c0 .004 0 .008-.004.012a.117.117 0 0 0-.016-.031c-.012-.032-.027-.063-.043-.094-.016-.027-.023-.05-.043-.074a5.077 5.077 0 0 1-.05-.059.03.03 0 0 0 .007-.015l-.023-.024c.004 0 .007-.004.011-.004-.004-.008-.011-.012-.015-.02a.17.17 0 0 0-.024-.027 1.343 1.343 0 0 0-.035-.074c-.023-.039-.043-.082-.074-.113s-.059-.059-.086-.09a1.073 1.073 0 0 0-.094-.11s.004-.003 0-.007c-.012-.02-.015-.043-.027-.063-.008-.023-.024-.039-.04-.058-.015-.02-.034-.035-.05-.055a.292.292 0 0 0-.047-.055c-.02-.023-.039-.047-.062-.07a1.141 1.141 0 0 0-.141-.102.124.124 0 0 0-.047-.043c-.023-.015-.047-.043-.066-.062-.012-.016-.02-.035-.035-.047-.024-.016-.028-.047-.051-.066-.035-.04-.059-.086-.082-.133-.016-.024-.04-.031-.055-.05-.012-.013-.012-.032-.02-.048-.007-.012-.019-.02-.023-.031-.004-.02-.031-.035-.043-.047-.023-.016-.039-.035-.058-.055-.016-.015-.04-.027-.055-.043-.016-.011-.031-.027-.047-.039.004-.004 0-.007 0-.011-.012-.012-.027-.024-.04-.035-.019-.036-.089-.075-.116-.098.015 0 .039.012.05.012.012.003.016-.012.008-.016-.027-.02-.047-.047-.07-.074l-.012-.016v-.004a.291.291 0 0 1-.027-.047.105.105 0 0 0 .027.032c.016.011.04.03.059.015.004-.004 0-.008-.004-.008-.05.012-.086-.07-.117-.097a.35.35 0 0 0-.09-.078c.012-.004.02-.004.027-.016a.012.012 0 0 0 0-.016c-.02-.02-.039-.03-.054-.047.011.004.023.012.035.02 0 0 .004-.004.004-.008-.02-.02-.051-.027-.078-.039h-.004c-.008-.008-.02-.012-.032-.02-.035-.023-.066-.05-.101-.07v-.008c-.004-.03-.047-.054-.082-.07.008-.004.012-.008.012-.015.003-.016-.012-.028-.028-.036h.004a.085.085 0 0 0 .027-.035s-.003-.008-.007-.004a.104.104 0 0 0-.024.02c-.004.004-.012.004-.015.004-.012-.008-.032-.008-.043-.012-.02-.004-.04-.012-.059-.02-.012-.003-.023-.015-.04-.023.005 0 .009-.004.005-.008-.008-.027-.031-.047-.055-.062-.004-.004-.008-.004-.012-.008.032.012.063.016.086-.008.004-.004 0-.008-.004-.008a.137.137 0 0 1-.117-.011c-.011-.008-.023-.016-.031-.028l-.043-.023c0-.004-.004-.004-.004-.008h-.004l-.004-.004c-.011-.008-.02-.02-.03-.027-.036-.024-.083-.024-.122-.04v-.003c0-.012.004-.04-.004-.051-.004-.016-.02-.027-.031-.035-.035-.024-.094-.04-.117-.074a.094.094 0 0 0-.047-.04c-.016-.011-.031-.03-.051-.042a.223.223 0 0 0-.031-.028c.011-.008 0-.027-.004-.035a.288.288 0 0 1-.016-.055c.012.008.016.016.028.02.003.004.011 0 .011-.004a.08.08 0 0 0 0-.043.056.056 0 0 0 .028.008c0 .004.007 0 .007-.004 0-.02-.007-.031-.015-.047-.004-.012-.012-.023-.016-.035.004.008.024.02.031.023 0 0 .004 0 .008-.004.008-.011.004-.027 0-.043-.008-.019-.008-.039-.015-.062.007 0 .011-.004.011-.012.004.004.008.012.016.012 0 .004.004 0 .008-.004.008-.008.008-.016.004-.027v-.008c.008 0 .015.004.023-.008.012-.012.008-.027.004-.039l.004-.004c.008-.004.008-.012.008-.023.004 0 .008 0 .011-.004.02-.008.012-.043.004-.055-.007-.031.008-.058.02-.082v-.105c0 .011 0 .023.004.035 0 .027.004.054.008.082.007.031.015.058.015.094 0 .007.012.007.012 0 .004-.122.023-.243.066-.36.012-.027.028-.05.04-.074h.003l-.004.004c-.003.015-.003.035-.007.05 0 .02-.012.048 0 .067 0 .004.007.004.007 0 .008-.027.016-.055.028-.082 0 .004.004.012.008.02 0 .003.003.003.003 0a.044.044 0 0 0-.011-.032.056.056 0 0 0 .008-.027c.007-.016.023-.031.03-.047-.003.016-.003.031-.007.047l-.012.09c-.011.039-.008.082-.011.12v.013c0 .007.007.007.007.004.008-.047.012-.094.016-.141l.012-.047a.834.834 0 0 1 .101-.191h.004l-.012.03c-.003.024-.003.048-.007.071-.004.02-.02.063-.004.082.004 0 .008 0 .012-.004 0-.027.011-.05.019-.07.012-.027.02-.05.035-.074a.14.14 0 0 1 .028-.04c-.004.02-.008.04-.016.06-.02.07-.031.136-.02.206 0 .008.008.008.008 0a.553.553 0 0 1 .016-.078c.008-.015.008-.031.015-.043a.158.158 0 0 0 .02-.035c.012-.027.031-.05.047-.078.015-.027.031-.05.047-.078.02-.031.031-.067.05-.098-.003.031-.019.059-.027.086-.008.035-.02.074-.023.11v.015c0 .004.004.004.004 0 .004-.008.004-.02.007-.027 0-.008 0-.008.004-.016.004-.012.012-.02.016-.031a.317.317 0 0 1 .039-.07c.023-.024.043-.055.07-.075.008-.007.016-.02.024-.027a.302.302 0 0 1-.028.063c-.011.015-.03.03-.035.05a.636.636 0 0 0-.027.117c0 .004.004.008.008.004.011-.02.02-.043.031-.062.016-.027.027-.055.047-.078.02-.028.047-.051.07-.078a.272.272 0 0 0-.043.09c0 .003.004.007.008.003.023-.023.04-.046.066-.07.024-.016.043-.035.067-.055.004-.004.02-.011.027-.015-.02.023-.027.054-.035.082a.042.042 0 0 0-.008.023c0 .016-.012.031-.015.047 0 .004.007.008.007.004.043-.074.079-.148.145-.207-.008.016-.016.027-.02.04-.011.019-.02.038-.027.058a.385.385 0 0 0-.031.109c0 .004.008.008.008 0 .004-.016.015-.027.027-.039l.039-.05c.023-.036.059-.063.09-.09.015-.012.027-.024.043-.036.004 0 .008 0 .012.004-.012.016-.02.035-.028.05-.02.044-.047.087-.05.138 0 .004.007.007.007 0 .008-.024.028-.04.043-.059a.559.559 0 0 1 .043-.059c.016-.015.035-.027.051-.039l-.012.016c-.023.031-.027.07-.043.105 0 .004.004.004.004.004.008 0 .012 0 .012-.004.016-.023.035-.039.05-.058.028-.024.055-.047.083-.074-.008.015-.016.027-.02.039-.012.023-.027.043-.031.066 0 .004.004.008.008.004.015-.016.027-.035.047-.05.023-.024.05-.04.078-.06.023-.015.05-.035.074-.05l.004-.004c-.012.02-.027.035-.035.059-.024.039-.067.062-.09.097 0 .004 0 .008.004.008.012-.004.008 0 .015-.008a.14.14 0 0 1 .04-.027c.027-.016.054-.024.078-.04.023-.015.043-.034.062-.054.02-.02.035-.039.05-.062l-.01.027a.196.196 0 0 1-.063.086.243.243 0 0 0-.055.074c-.008.02-.023.04-.02.059 0 .008.004.008.008.004.024-.024.035-.055.063-.079.027-.027.054-.058.09-.078.027-.02.054-.03.078-.054.004-.004.015-.004.023-.012s.004-.008.008-.012h.004a.579.579 0 0 0-.067.196c-.003.007.008.011.012.003.012-.035.04-.062.051-.093a.257.257 0 0 1 .066-.09c.012-.012.024-.024.04-.031a.085.085 0 0 1-.016.02.303.303 0 0 0-.035.128c0 .016.02.016.02.004.007-.043.042-.078.066-.11l.02-.027h.003c.04.004.074.008.113.016v.015c0 .004 0 .012.004.012.031.016.063-.004.094 0 .008 0 .039 0 .043.004 0 .012.004.02.016.02.007 0 .02.004.027 0 .027-.008.02.004.035.02.008.01.04.007.059 0 0 .05.07.019.109.007 0 .008.008.008.012.012.02 0 .035 0 .05.011.004.008.036.016.036.008 0 .008.004.012.011.016.012 0 .016.008.024.008.012 0 .02.004.031.004a.05.05 0 0 0 .024.003l-.004.004c0 .004.004.004.007 0 0 0 0-.004.004-.007.008 0 .012-.004.02-.004a.033.033 0 0 1 .027 0c-.008.007-.004.02.008.02.02 0 .04 0 .059-.005v.004c0 .008.004.016.015.016.004 0 .051-.016.051-.02 0 .004.004.012.012.012s.035-.004.043 0c.008.012.015.012.031.016-.102.066-.203.14-.305.214-.172.122-.34.262-.445.446-.004.004.004.004.004.004.086-.137.2-.25.324-.348.063-.055.129-.102.195-.145.07-.046.137-.097.207-.144.012-.012.028-.02.04-.027.015-.004.027-.008.042-.004.012.004.032.008.051.015h-.02c-.003 0-.003.012 0 .012.04 0 .079-.012.118-.012 0 .008.004.016.012.024.007.008.023.004.03.004.028 0 .052-.012.079-.024.008.008.02.012.031.012.008 0 .059-.016.059-.004 0 .008.004.012.008.016.03.004.054-.008.078-.012 0 .008-.004.012-.004.023-.004.004.004.008.008.008.02.008.039-.008.054-.02.004 0 .004-.003.008-.003s.012-.004.02-.004v.008c-.004.008.008.011.011.011.004 0 .008 0 .012-.004v.016h-.008v.008c.012 0 .004.004.012.012.008.007.016.007.027.007.016 0 .028-.003.036-.011.007 0 .011-.004.02-.008.007-.004.007-.004.015-.004h.035c-.074.09-.145.184-.207.285-.16.258-.297.559-.317.867 0 .004.004.004.004 0 .035-.347.196-.683.391-.972.043-.063.09-.121.137-.184.027 0 .054.004.082-.004.02 0 .031-.004.05-.004.02 0 .036-.004.051-.004.008.004.016.008.028.008-.051.059-.094.117-.141.176 0 .004.004.008.004.004.047-.059.094-.121.144-.18h.004c.008.028.051.02.078.016l.012.012c.02 0 .04-.004.059-.004.015-.004.015.011.031.011.012 0 .023-.004.04-.007.01-.008.023-.016.034-.012.008 0 .012.004.02.004a.05.05 0 0 0 .047 0c.02-.004.047 0 .074.004.015 0 .027 0 .047-.004h.023c.012 0 .02-.008.031-.008.004 0 .008-.004.008-.012l.016.008c0 .004.008.012.012.008.007 0 .011-.004.015-.008-.008.098-.039.195-.02.293 0 .004.005.004.005 0-.016-.094.011-.184.023-.277 0-.008 0-.016.004-.024h.004c.02-.004.043-.015.062-.011.004 0 .012-.004.012-.012v-.004c.004 0 .004-.004.008-.004.004-.004.008-.004.008-.008 0 0 .015-.004.02 0 .023.008.042-.004.054-.02.02-.023.035-.05.055-.078.007-.011.003-.027.011-.042.008-.02.008-.043.008-.063.024-.004.05-.008.074-.016a.31.31 0 0 0 .086-.023c.028-.012.047-.035.075-.047.019-.012.027.008.046.008h.012c.024.012.043.047.055.066.004.004.008 0 .008-.004-.012-.02-.028-.05-.051-.066a.119.119 0 0 0 .039-.027.233.233 0 0 1 .082-.055c.004-.004.016-.004.02-.008.007-.008.011-.015.019-.02.008 0 .012-.003.02-.003.03.008.05.054.058.078.031.074.04.168-.008.238-.004 0 0 .004.004.004.055-.07.04-.176.008-.25-.012-.027-.027-.059-.055-.074.024-.008.047-.024.07-.035.008-.004.012-.012.02-.016.012-.008.024-.012.035-.02.004 0 .004-.003.008-.007.07.023.129.066.192.101.003 0 .003-.004.003-.004-.062-.039-.12-.082-.187-.101.008-.008.016-.016.023-.02.016-.008.028-.011.04-.02l.066-.046c.02-.016.031-.047.035-.07l.05-.012c.032-.012.071-.012.102-.02.075-.015.149-.035.22-.054-.024-.016-.024-.02-.028-.02Zm0 0"/></g><g clip-path="url(#b)"><path fill="#fff" d="M.7 18.082c.046-.047.085-.098.132-.148 0 0-.004-.004-.004 0-.05.043-.09.097-.133.144-.007 0 0 .008.004.004Zm0 0"/></g></svg>