<svg xmlns="http://www.w3.org/2000/svg" width="100" viewBox="0 0 75 75" height="100" version="1.0"><defs><clipPath id="a"><path d="M6 36h12v8H6Zm0 0"/></clipPath><clipPath id="b"><path d="m20.367-1.55 60.82 39.917L57.73 74.105-3.09 34.191Zm0 0"/></clipPath><clipPath id="c"><path d="m20.367-1.55 60.82 39.917L57.73 74.105-3.09 34.191Zm0 0"/></clipPath><clipPath id="d"><path d="M5 35h13v10H5Zm0 0"/></clipPath><clipPath id="e"><path d="m20.367-1.55 60.82 39.917L57.73 74.105-3.09 34.191Zm0 0"/></clipPath><clipPath id="f"><path d="m20.367-1.55 60.82 39.917L57.73 74.105-3.09 34.191Zm0 0"/></clipPath><clipPath id="g"><path d="m8.566 32.793 11.23 7.371-4.358 6.64-11.231-7.37Zm0 0"/></clipPath><clipPath id="h"><path d="m8.566 32.793 11.23 7.371-4.347 6.621-11.23-7.37Zm0 0"/></clipPath><clipPath id="i"><path d="M21 36h8v8h-8Zm0 0"/></clipPath><clipPath id="j"><path d="m20.367-1.55 60.82 39.917L57.73 74.105-3.09 34.191Zm0 0"/></clipPath><clipPath id="k"><path d="m20.367-1.55 60.82 39.917L57.73 74.105-3.09 34.191Zm0 0"/></clipPath><clipPath id="l"><path d="M20 36h10v9H20Zm0 0"/></clipPath><clipPath id="m"><path d="m20.367-1.55 60.82 39.917L57.73 74.105-3.09 34.191Zm0 0"/></clipPath><clipPath id="n"><path d="m20.367-1.55 60.82 39.917L57.73 74.105-3.09 34.191Zm0 0"/></clipPath><clipPath id="o"><path d="M30 36h2v2h-2Zm0 0"/></clipPath><clipPath id="p"><path d="m20.367-1.55 60.82 39.917L57.73 74.105-3.09 34.191Zm0 0"/></clipPath><clipPath id="q"><path d="m20.367-1.55 60.82 39.917L57.73 74.105-3.09 34.191Zm0 0"/></clipPath><clipPath id="r"><path d="M29 36h4v3h-4Zm0 0"/></clipPath><clipPath id="s"><path d="m20.367-1.55 60.82 39.917L57.73 74.105-3.09 34.191Zm0 0"/></clipPath><clipPath id="t"><path d="m20.367-1.55 60.82 39.917L57.73 74.105-3.09 34.191Zm0 0"/></clipPath><clipPath id="u"><path d="M18 27h8v9h-8Zm0 0"/></clipPath><clipPath id="v"><path d="m20.367-1.55 60.82 39.917L57.73 74.105-3.09 34.191Zm0 0"/></clipPath><clipPath id="w"><path d="m20.367-1.55 60.82 39.917L57.73 74.105-3.09 34.191Zm0 0"/></clipPath><clipPath id="x"><path d="M18 27h9v10h-9Zm0 0"/></clipPath><clipPath id="y"><path d="m20.367-1.55 60.82 39.917L57.73 74.105-3.09 34.191Zm0 0"/></clipPath><clipPath id="z"><path d="m20.367-1.55 60.82 39.917L57.73 74.105-3.09 34.191Zm0 0"/></clipPath><clipPath id="A"><path d="M25 25h2v2h-2Zm0 0"/></clipPath><clipPath id="B"><path d="m20.367-1.55 60.82 39.917L57.73 74.105-3.09 34.191Zm0 0"/></clipPath><clipPath id="C"><path d="m20.367-1.55 60.82 39.917L57.73 74.105-3.09 34.191Zm0 0"/></clipPath><clipPath id="D"><path d="M24 24h4v3h-4Zm0 0"/></clipPath><clipPath id="E"><path d="m20.367-1.55 60.82 39.917L57.73 74.105-3.09 34.191Zm0 0"/></clipPath><clipPath id="F"><path d="m20.367-1.55 60.82 39.917L57.73 74.105-3.09 34.191Zm0 0"/></clipPath><clipPath id="G"><path d="M10 23h8v9h-8Zm0 0"/></clipPath><clipPath id="H"><path d="m20.367-1.55 60.82 39.917L57.73 74.105-3.09 34.191Zm0 0"/></clipPath><clipPath id="I"><path d="m20.367-1.55 60.82 39.917L57.73 74.105-3.09 34.191Zm0 0"/></clipPath><clipPath id="J"><path d="M10 22h9v11h-9Zm0 0"/></clipPath><clipPath id="K"><path d="m20.367-1.55 60.82 39.917L57.73 74.105-3.09 34.191Zm0 0"/></clipPath><clipPath id="L"><path d="m20.367-1.55 60.82 39.917L57.73 74.105-3.09 34.191Zm0 0"/></clipPath><clipPath id="M"><path d="M18 20h2v2h-2Zm0 0"/></clipPath><clipPath id="N"><path d="m20.367-1.55 60.82 39.917L57.73 74.105-3.09 34.191Zm0 0"/></clipPath><clipPath id="O"><path d="m20.367-1.55 60.82 39.917L57.73 74.105-3.09 34.191Zm0 0"/></clipPath><clipPath id="P"><path d="M17 19h4v4h-4Zm0 0"/></clipPath><clipPath id="Q"><path d="m20.367-1.55 60.82 39.917L57.73 74.105-3.09 34.191Zm0 0"/></clipPath><clipPath id="R"><path d="m20.367-1.55 60.82 39.917L57.73 74.105-3.09 34.191Zm0 0"/></clipPath><clipPath id="S"><path d="M1 25h8v8H1Zm0 0"/></clipPath><clipPath id="T"><path d="m20.367-1.55 60.82 39.917L57.73 74.105-3.09 34.191Zm0 0"/></clipPath><clipPath id="U"><path d="m20.367-1.55 60.82 39.917L57.73 74.105-3.09 34.191Zm0 0"/></clipPath><clipPath id="V"><path d="M1 25h9v9H1Zm0 0"/></clipPath><clipPath id="W"><path d="m20.367-1.55 60.82 39.917L57.73 74.105-3.09 34.191Zm0 0"/></clipPath><clipPath id="X"><path d="m20.367-1.55 60.82 39.917L57.73 74.105-3.09 34.191Zm0 0"/></clipPath><clipPath id="Y"><path d="M5 22h2v3H5Zm0 0"/></clipPath><clipPath id="Z"><path d="m20.367-1.55 60.82 39.917L57.73 74.105-3.09 34.191Zm0 0"/></clipPath><clipPath id="aa"><path d="m20.367-1.55 60.82 39.917L57.73 74.105-3.09 34.191Zm0 0"/></clipPath><clipPath id="ab"><path d="M5 21h3v4H5Zm0 0"/></clipPath><clipPath id="ac"><path d="m20.367-1.55 60.82 39.917L57.73 74.105-3.09 34.191Zm0 0"/></clipPath><clipPath id="ad"><path d="m20.367-1.55 60.82 39.917L57.73 74.105-3.09 34.191Zm0 0"/></clipPath><clipPath id="ae"><path d="M50 43h11v10H50Zm0 0"/></clipPath><clipPath id="af"><path d="m20.367-1.55 60.82 39.917L57.73 74.105-3.09 34.191Zm0 0"/></clipPath><clipPath id="ag"><path d="m20.367-1.55 60.82 39.917L57.73 74.105-3.09 34.191Zm0 0"/></clipPath><clipPath id="ah"><path d="M49 43h13v10H49Zm0 0"/></clipPath><clipPath id="ai"><path d="m20.367-1.55 60.82 39.917L57.73 74.105-3.09 34.191Zm0 0"/></clipPath><clipPath id="aj"><path d="m20.367-1.55 60.82 39.917L57.73 74.105-3.09 34.191Zm0 0"/></clipPath><clipPath id="ak"><path d="M47 31h7v10h-7Zm0 0"/></clipPath><clipPath id="al"><path d="m20.367-1.55 60.82 39.917L57.73 74.105-3.09 34.191Zm0 0"/></clipPath><clipPath id="am"><path d="m20.367-1.55 60.82 39.917L57.73 74.105-3.09 34.191Zm0 0"/></clipPath><clipPath id="an"><path d="M46 31h8v10h-8Zm0 0"/></clipPath><clipPath id="ao"><path d="m20.367-1.55 60.82 39.917L57.73 74.105-3.09 34.191Zm0 0"/></clipPath><clipPath id="ap"><path d="m20.367-1.55 60.82 39.917L57.73 74.105-3.09 34.191Zm0 0"/></clipPath><clipPath id="aq"><path d="M50 28h2v3h-2Zm0 0"/></clipPath><clipPath id="ar"><path d="m20.367-1.55 60.82 39.917L57.73 74.105-3.09 34.191Zm0 0"/></clipPath><clipPath id="as"><path d="m20.367-1.55 60.82 39.917L57.73 74.105-3.09 34.191Zm0 0"/></clipPath><clipPath id="at"><path d="M50 27h3v4h-3Zm0 0"/></clipPath><clipPath id="au"><path d="m20.367-1.55 60.82 39.917L57.73 74.105-3.09 34.191Zm0 0"/></clipPath><clipPath id="av"><path d="m20.367-1.55 60.82 39.917L57.73 74.105-3.09 34.191Zm0 0"/></clipPath><clipPath id="aw"><path d="M56 31h8v8h-8Zm0 0"/></clipPath><clipPath id="ax"><path d="m20.367-1.55 60.82 39.917L57.73 74.105-3.09 34.191Zm0 0"/></clipPath><clipPath id="ay"><path d="m20.367-1.55 60.82 39.917L57.73 74.105-3.09 34.191Zm0 0"/></clipPath><clipPath id="az"><path d="M55 30h9v10h-9Zm0 0"/></clipPath><clipPath id="aA"><path d="m20.367-1.55 60.82 39.917L57.73 74.105-3.09 34.191Zm0 0"/></clipPath><clipPath id="aB"><path d="m20.367-1.55 60.82 39.917L57.73 74.105-3.09 34.191Zm0 0"/></clipPath><clipPath id="aC"><path d="M63 28h2v3h-2Zm0 0"/></clipPath><clipPath id="aD"><path d="m20.367-1.55 60.82 39.917L57.73 74.105-3.09 34.191Zm0 0"/></clipPath><clipPath id="aE"><path d="m20.367-1.55 60.82 39.917L57.73 74.105-3.09 34.191Zm0 0"/></clipPath><clipPath id="aF"><path d="M62 28h3v3h-3Zm0 0"/></clipPath><clipPath id="aG"><path d="m20.367-1.55 60.82 39.917L57.73 74.105-3.09 34.191Zm0 0"/></clipPath><clipPath id="aH"><path d="m20.367-1.55 60.82 39.917L57.73 74.105-3.09 34.191Zm0 0"/></clipPath><clipPath id="aI"><path d="M62 36h8v9h-8Zm0 0"/></clipPath><clipPath id="aJ"><path d="m20.367-1.55 60.82 39.917L57.73 74.105-3.09 34.191Zm0 0"/></clipPath><clipPath id="aK"><path d="m20.367-1.55 60.82 39.917L57.73 74.105-3.09 34.191Zm0 0"/></clipPath><clipPath id="aL"><path d="M62 35h9v11h-9Zm0 0"/></clipPath><clipPath id="aM"><path d="m20.367-1.55 60.82 39.917L57.73 74.105-3.09 34.191Zm0 0"/></clipPath><clipPath id="aN"><path d="m20.367-1.55 60.82 39.917L57.73 74.105-3.09 34.191Zm0 0"/></clipPath><clipPath id="aO"><path d="M69 33h2v3h-2Zm0 0"/></clipPath><clipPath id="aP"><path d="m20.367-1.55 60.82 39.917L57.73 74.105-3.09 34.191Zm0 0"/></clipPath><clipPath id="aQ"><path d="m20.367-1.55 60.82 39.917L57.73 74.105-3.09 34.191Zm0 0"/></clipPath><clipPath id="aR"><path d="M69 32h3v4h-3Zm0 0"/></clipPath><clipPath id="aS"><path d="m20.367-1.55 60.82 39.917L57.73 74.105-3.09 34.191Zm0 0"/></clipPath><clipPath id="aT"><path d="m20.367-1.55 60.82 39.917L57.73 74.105-3.09 34.191Zm0 0"/></clipPath><clipPath id="aU"><path d="M65 46h7v8h-7Zm0 0"/></clipPath><clipPath id="aV"><path d="m20.367-1.55 60.82 39.917L57.73 74.105-3.09 34.191Zm0 0"/></clipPath><clipPath id="aW"><path d="m20.367-1.55 60.82 39.917L57.73 74.105-3.09 34.191Zm0 0"/></clipPath><clipPath id="aX"><path d="M64 46h9v9h-9Zm0 0"/></clipPath><clipPath id="aY"><path d="m20.367-1.55 60.82 39.917L57.73 74.105-3.09 34.191Zm0 0"/></clipPath><clipPath id="aZ"><path d="m20.367-1.55 60.82 39.917L57.73 74.105-3.09 34.191Zm0 0"/></clipPath><clipPath id="ba"><path d="M72 46h2v2h-2Zm0 0"/></clipPath><clipPath id="bb"><path d="m20.367-1.55 60.82 39.917L57.73 74.105-3.09 34.191Zm0 0"/></clipPath><clipPath id="bc"><path d="m20.367-1.55 60.82 39.917L57.73 74.105-3.09 34.191Zm0 0"/></clipPath><clipPath id="bd"><path d="M71 45h4v4h-4Zm0 0"/></clipPath><clipPath id="be"><path d="m20.367-1.55 60.82 39.917L57.73 74.105-3.09 34.191Zm0 0"/></clipPath><clipPath id="bf"><path d="m20.367-1.55 60.82 39.917L57.73 74.105-3.09 34.191Zm0 0"/></clipPath></defs><g clip-path="url(#a)"><g clip-path="url(#b)"><g clip-path="url(#c)"><path d="M16.52 40.809c-.415-.871-.852-1.73-1.25-2.61-.278-.617-.711-1.125-1.329-1.289a5.399 5.399 0 0 0-2.046-.148c-.73.093-1.407.023-2.118-.098-.765-.133-1.52-.473-2.343-.223-2.59.79.636 4.075 1.625 4.93a11.175 11.175 0 0 0 4.82 2.477c1.418.324 3.613.054 3.094-2-.09-.36-.29-.7-.453-1.04"/></g></g></g><g clip-path="url(#d)"><g clip-path="url(#e)"><g clip-path="url(#f)"><g clip-path="url(#g)"><g clip-path="url(#h)"><path d="M13.879 43.848a11.175 11.175 0 0 1-4.82-2.477c-.989-.855-4.215-4.14-1.625-4.93.824-.25 1.578.09 2.343.223.711.121 1.387.191 2.118.098a5.399 5.399 0 0 1 2.046.148c.618.164 1.051.672 1.329 1.29.398.878.835 1.737 1.25 2.609.164.34.363.68.453 1.039.52 2.054-1.676 2.324-3.094 2Zm3.02-3.203c-.305-.465-.63-.93-.837-1.45-.19-.476-.292-.91-.55-1.363-.532-.953-1.535-1.445-2.614-1.465-1.16-.02-2.328-.11-3.48-.238-.77-.086-1.613-.316-2.367-.086-.871.266-1.442 1.328-1.207 2.219.207.797.699 1.39 1.164 2.047.98 1.394 2.379 2.613 3.875 3.441.066.035.125.07.187.102 1.852.98 5.313 1.949 6.512-.477.469-.941-.16-1.934-.684-2.73"/></g></g></g></g></g><g clip-path="url(#i)"><g clip-path="url(#j)"><g clip-path="url(#k)"><path d="M26.945 36.906c-1.465.078-2.87.711-3.949 1.688-.933.847-2.14 2.308-1.664 3.644.75 2.114 3.848 1.895 5.41.942a4.46 4.46 0 0 0 1.36-1.285c.52-.743.82-1.637.875-2.57.074-1.348-.543-2.5-2.032-2.419"/></g></g></g><g clip-path="url(#l)"><g clip-path="url(#m)"><g clip-path="url(#n)"><path d="M28.102 41.895a4.46 4.46 0 0 1-1.36 1.285c-1.562.953-4.66 1.172-5.41-.942-.477-1.336.73-2.797 1.664-3.644 1.078-.977 2.484-1.61 3.95-1.688 1.488-.082 2.105 1.07 2.03 2.418a4.992 4.992 0 0 1-.874 2.57Zm.96-4.352c-1.269-1.75-4.226-.785-5.683.223-1.195.82-2.172 2.109-2.547 3.527-.336 1.254.504 2.355 1.527 3.031 2.09 1.375 4.688.367 6.196-1.441 1.27-1.52 1.761-3.617.508-5.34"/></g></g></g><g clip-path="url(#o)"><g clip-path="url(#p)"><g clip-path="url(#q)"><path d="M31.406 36.707c-2.652-.453-.578 2.684.098.145.016-.067-.027-.137-.098-.145"/></g></g></g><g clip-path="url(#r)"><g clip-path="url(#s)"><g clip-path="url(#t)"><path d="M31.406 36.707c.07.008.114.078.098.145-.676 2.539-2.75-.598-.098-.145Zm.157-.594c-3.735.117-1.165 3.614.05 1.621.242-.398 1.153-1.656-.05-1.62"/></g></g></g><g clip-path="url(#u)"><g clip-path="url(#v)"><g clip-path="url(#w)"><path d="M19.023 32.746c.2 1.531 1.723 2.64 3.247 2.422a2.682 2.682 0 0 0 1.421-.68c1-.89 1.485-2.457 1.649-3.695.101-.816.367-2.754-.5-3.254-1.207-.703-3.676.867-4.496 1.715-.895.926-1.492 2.215-1.32 3.492"/></g></g></g><g clip-path="url(#x)"><g clip-path="url(#y)"><g clip-path="url(#z)"><path d="M24.84 27.54c.867.5.601 2.437.5 3.253-.164 1.238-.649 2.805-1.649 3.695-.394.352-.859.598-1.421.68-1.524.219-3.047-.89-3.247-2.422-.171-1.277.426-2.566 1.32-3.492.821-.848 3.29-2.418 4.497-1.715Zm-6.68 4.894c.059.851.473 1.656 1.05 2.285 1.517 1.656 3.49 2.031 5.227.422 1.04-.961 1.45-2.43 1.758-3.77.215-.926.242-1.922-.097-2.808-1.008-2.637-3.79-1.43-5.598-.09-.309.23-.594.465-.832.683-.922.84-1.598 2.035-1.508 3.278"/></g></g></g><g clip-path="url(#A)"><g clip-path="url(#B)"><g clip-path="url(#C)"><path d="M26.383 25.031c-2.63.574.465 2.707.144.102a.12.12 0 0 0-.144-.102"/></g></g></g><g clip-path="url(#D)"><g clip-path="url(#E)"><g clip-path="url(#F)"><path d="M26.383 25.031a.12.12 0 0 1 .144.102c.32 2.605-2.773.472-.144-.102Zm-.078-.61c-3.418 1.505.273 3.79.652 1.485.078-.457.45-1.965-.652-1.484"/></g></g></g><g clip-path="url(#G)"><g clip-path="url(#H)"><g clip-path="url(#I)"><path d="M16.523 29.613c.532-1.015 1.055-2.355 1.2-3.664.078-.719.113-1.77-.262-2.422-.39-.683-1.266-.539-1.93-.265-.61.25-1.133.664-1.648 1.078-.781.625-1.57 1.258-2.145 2.074-.574.816-.922 1.852-.691 2.82.605 2.606 4.383 2.473 5.476.38"/></g></g></g><g clip-path="url(#J)"><g clip-path="url(#K)"><g clip-path="url(#L)"><path d="M11.738 26.414c.575-.816 1.364-1.45 2.145-2.074.515-.414 1.039-.828 1.648-1.078.664-.274 1.54-.418 1.93.265.375.653.34 1.703.262 2.422-.145 1.309-.668 2.649-1.2 3.664-1.093 2.094-4.87 2.227-5.476-.379-.23-.968.117-2.004.691-2.82Zm1.66 5.55c2.415.4 4.059-1.523 4.801-3.593.258-.703.504-1.621.567-2.527.078-1.196-.168-2.38-1.164-3.028-.993-.644-2.258-.128-3.114.504-1.898 1.403-4.23 3.082-4.011 5.762.12 1.5 1.472 2.645 2.921 2.883"/></g></g></g><g clip-path="url(#M)"><g clip-path="url(#N)"><g clip-path="url(#O)"><path d="M19.477 20.566c-2.61.664.558 2.688.148.094a.12.12 0 0 0-.148-.094"/></g></g></g><g clip-path="url(#P)"><g clip-path="url(#Q)"><g clip-path="url(#R)"><path d="M19.477 20.566a.12.12 0 0 1 .148.094c.41 2.594-2.758.57-.148-.094Zm-.098-.605c-3.363 1.621.402 3.773.703 1.46.063-.46.379-1.983-.703-1.46"/></g></g></g><g clip-path="url(#S)"><g clip-path="url(#T)"><g clip-path="url(#U)"><path d="M7.129 31.422C8.62 30.043 8.926 27.035 7 25.879c-1.664-1-4.11-.176-5.004 1.496a3.623 3.623 0 0 0 .04 3.41 3.28 3.28 0 0 0 1.046 1.137c1.207.793 2.844.617 4.047-.5"/></g></g></g><g clip-path="url(#V)"><g clip-path="url(#W)"><g clip-path="url(#X)"><path d="M2.035 30.785a3.623 3.623 0 0 1-.039-3.41c.895-1.672 3.34-2.496 5.004-1.496 1.926 1.156 1.621 4.164.129 5.543-1.203 1.117-2.84 1.293-4.047.5a3.28 3.28 0 0 1-1.047-1.137Zm1.113 2.445c2.575 1.157 5.094-.996 5.786-3.406.671-2.34-1.243-4.71-3.676-4.765-1.672-.04-2.985 1.011-3.688 2.386C.543 29.461.812 32.18 3.148 33.23"/></g></g></g><g clip-path="url(#Y)"><g clip-path="url(#Z)"><g clip-path="url(#aa)"><path d="M6.418 22.664c-2.14 1.633 1.566 2.258.176.031a.126.126 0 0 0-.176-.03"/></g></g></g><g clip-path="url(#ab)"><g clip-path="url(#ac)"><g clip-path="url(#ad)"><path d="M6.418 22.664a.126.126 0 0 1 .176.031c1.39 2.227-2.317 1.602-.176-.03Zm-.324-.516c-2.465 2.805 1.843 3.317 1.218 1.07-.125-.448-.425-1.972-1.218-1.07"/></g></g></g><g clip-path="url(#ae)"><g clip-path="url(#af)"><g clip-path="url(#ag)"><path d="M53.195 43.992c.961.059 1.922.149 2.887.192.676.027 1.309.242 1.688.754.406.539.73 1.19.898 1.843.184.715.5 1.317.875 1.93.414.664 1.008 1.238 1.082 2.094.227 2.699-4.02.922-5.18.324a11.247 11.247 0 0 1-4.093-3.559c-.829-1.191-1.391-3.332.71-3.613.368-.05.758.012 1.133.035"/></g></g></g><g clip-path="url(#ah)"><g clip-path="url(#ai)"><g clip-path="url(#aj)"><path d="M52.063 43.957c.367-.05.757.012 1.132.035.961.059 1.922.149 2.887.192.676.027 1.309.242 1.688.754.406.539.73 1.19.898 1.843.184.715.5 1.317.875 1.93.414.664 1.008 1.238 1.082 2.094.227 2.699-4.02.922-5.18.324a11.247 11.247 0 0 1-4.093-3.559c-.829-1.191-1.391-3.332.71-3.613Zm-1.645.004c-1.805 2.012.375 4.863 1.977 6.223.05.043.105.086.164.132 1.324 1.082 2.976 1.93 4.632 2.32.782.188 1.516.426 2.332.321.918-.113 1.692-1.035 1.614-1.945-.067-.782-.594-1.485-.961-2.164a37.517 37.517 0 0 1-1.516-3.145c-.418-.992-1.242-1.742-2.328-1.883-.516-.066-.957 0-1.469 0-.562-.004-1.113-.129-1.66-.242-.93-.191-2.086-.402-2.785.383"/></g></g></g><g clip-path="url(#ak)"><g clip-path="url(#al)"><g clip-path="url(#am)"><path d="M52.945 32.863c.473 1.387.407 2.93-.101 4.293-.438 1.18-1.348 2.848-2.766 2.899-2.238.086-3.187-2.871-2.883-4.676a4.486 4.486 0 0 1 .688-1.738 5.041 5.041 0 0 1 2.062-1.766c1.223-.57 2.524-.426 3 .988"/></g></g></g><g clip-path="url(#an)"><g clip-path="url(#ao)"><g clip-path="url(#ap)"><path d="M49.945 31.875c1.223-.57 2.524-.426 3 .988.473 1.387.407 2.93-.101 4.293-.438 1.18-1.348 2.848-2.766 2.899-2.238.086-3.187-2.871-2.883-4.676a4.486 4.486 0 0 1 .688-1.738 5.041 5.041 0 0 1 2.062-1.766Zm-3.148 1.715c-1.117 2.066-1.086 4.855.965 6.285 1.004.7 2.34 1.07 3.383.293 1.175-.875 2.007-2.262 2.328-3.676.39-1.726.191-4.832-1.903-5.36-2.066-.523-3.832.712-4.773 2.458"/></g></g></g><g clip-path="url(#aq)"><g clip-path="url(#ar)"><g clip-path="url(#as)"><path d="M51.477 28.645c1.402 2.296-2.278 1.535-.176-.036a.127.127 0 0 1 .176.036"/></g></g></g><g clip-path="url(#at)"><g clip-path="url(#au)"><g clip-path="url(#av)"><path d="M51.3 28.61a.127.127 0 0 1 .177.035c1.402 2.296-2.278 1.535-.176-.036Zm-.859.226c-1.398 1.867 2.805 2.953 1.524-.555-.41-1.129-1.242.18-1.524.555"/></g></g></g><g clip-path="url(#aw)"><g clip-path="url(#ax)"><g clip-path="url(#ay)"><path d="M59.75 38.676c-1.496.383-3.09-.625-3.453-2.117a2.689 2.689 0 0 1 .101-1.575c.454-1.257 1.73-2.293 2.82-2.902.72-.398 2.419-1.363 3.208-.742 1.101.86.558 3.73.074 4.808-.527 1.176-1.504 2.207-2.75 2.528"/></g></g></g><g clip-path="url(#az)"><g clip-path="url(#aA)"><g clip-path="url(#aB)"><path d="M62.5 36.148c-.527 1.176-1.504 2.207-2.75 2.528-1.496.383-3.09-.625-3.453-2.117a2.689 2.689 0 0 1 .101-1.575c.454-1.257 1.73-2.293 2.82-2.902.72-.398 2.419-1.363 3.208-.742 1.101.86.558 3.73.074 4.808Zm.344.594c.113-.3.226-.656.328-1.027.566-2.176.656-5.207-2.168-5.164-.95.012-1.863.406-2.64.953-1.13.785-2.34 1.71-2.848 3.031-.852 2.211.23 3.903 2.332 4.695.8.301 1.699.391 2.515.13 1.184-.38 2.043-1.454 2.48-2.618"/></g></g></g><g clip-path="url(#aC)"><g clip-path="url(#aD)"><g clip-path="url(#aE)"><path d="M64.18 28.977c.445 2.652-2.684.57-.149-.098.067-.02.137.027.149.098"/></g></g></g><g clip-path="url(#aF)"><g clip-path="url(#aG)"><g clip-path="url(#aH)"><path d="M64.031 28.879c.067-.02.137.027.149.098.445 2.652-2.684.57-.149-.098Zm-.879-.113c-1.996 1.21 1.496 3.789 1.621.054.04-1.203-1.222-.297-1.62-.054"/></g></g></g><g clip-path="url(#aI)"><g clip-path="url(#aJ)"><g clip-path="url(#aK)"><path d="M63.59 39.828c.742-.867 1.793-1.851 2.953-2.473.637-.34 1.602-.761 2.348-.66.78.11.968.977.96 1.696-.003.66-.195 1.3-.386 1.933-.29.953-.586 1.922-1.13 2.762-.546.836-1.378 1.539-2.362 1.687-2.645.407-3.922-3.148-2.383-4.945"/></g></g></g><g clip-path="url(#aL)"><g clip-path="url(#aM)"><g clip-path="url(#aN)"><path d="M65.973 44.773c-2.645.407-3.922-3.148-2.383-4.945.742-.867 1.793-1.851 2.953-2.473.637-.34 1.602-.761 2.348-.66.78.11.968.977.96 1.696-.003.66-.195 1.3-.386 1.933-.29.953-.586 1.922-1.13 2.762-.546.836-1.378 1.539-2.362 1.687Zm.355.473c2.57-.793 3.262-3.578 3.86-5.863.269-1.028.277-2.399-.688-3.078-.977-.684-2.164-.473-3.246.043-.82.398-1.578.965-2.137 1.465-1.644 1.457-2.82 3.699-1.55 5.792.757 1.258 2.324 2.086 3.761 1.641"/></g></g></g><g clip-path="url(#aO)"><g clip-path="url(#aP)"><g clip-path="url(#aQ)"><path d="M70.89 33.727c.352 2.668-2.703.48-.144-.102a.12.12 0 0 1 .145.102"/></g></g></g><g clip-path="url(#aR)"><g clip-path="url(#aS)"><g clip-path="url(#aT)"><path d="M70.746 33.625a.12.12 0 0 1 .145.102c.351 2.668-2.704.48-.145-.102Zm-.875-.145c-2.035 1.141 1.363 3.84 1.617.114.082-1.2-1.21-.34-1.617-.114"/></g></g></g><g clip-path="url(#aU)"><g clip-path="url(#aV)"><g clip-path="url(#aW)"><path d="M65.398 49.227c.727-1.899 3.403-3.297 5.192-1.942 1.547 1.172 1.691 3.75.469 5.203a3.609 3.609 0 0 1-3.18 1.227 3.271 3.271 0 0 1-1.442-.547c-1.187-.828-1.628-2.414-1.039-3.941"/></g></g></g><g clip-path="url(#aX)"><g clip-path="url(#aY)"><g clip-path="url(#aZ)"><path d="M66.438 53.168c-1.188-.828-1.63-2.414-1.04-3.941.727-1.899 3.403-3.297 5.192-1.942 1.547 1.172 1.691 3.75.469 5.203a3.609 3.609 0 0 1-3.18 1.227 3.271 3.271 0 0 1-1.442-.547Zm4.714-.262c1.016-1.164 1.504-2.77.848-4.308-.953-2.239-3.867-3.137-5.79-1.645-1.98 1.54-3.042 4.68-1.015 6.64 1.844 1.778 4.47 1.02 5.957-.687"/></g></g></g><g clip-path="url(#ba)"><g clip-path="url(#bb)"><g clip-path="url(#bc)"><path d="M73.793 46.633c-.719 2.594-2.68-.617-.094-.153.067.012.11.086.094.153"/></g></g></g><g clip-path="url(#bd)"><g clip-path="url(#be)"><g clip-path="url(#bf)"><path d="M73.7 46.48c.066.012.109.086.093.153-.719 2.594-2.68-.617-.094-.153Zm-.755-.472c-2.316.254-.242 4.066 1.446.734.546-1.074-.98-.785-1.446-.734"/></g></g></g></svg>